/* Created with The GIMP */
#define left_width 15
#define left_height 18
static unsigned char left_bits[] = {
   0x00, 0x00, 0x00, 0x18, 0x00, 0x14, 0x00, 0x12, 0x00, 0x11, 0x80, 0x10,
   0x40, 0x10, 0x20, 0x10, 0x10, 0x10, 0x20, 0x10, 0x40, 0x10, 0x80, 0x10,
   0x00, 0x11, 0x00, 0x12, 0x00, 0x14, 0x00, 0x18, 0x00, 0x00, 0x00, 0x00 };
