/* Created with The GIMP */
#define right_width 15
#define right_height 18
static unsigned char right_bits[] = {
   0x00, 0x00, 0x0c, 0x00, 0x14, 0x00, 0x24, 0x00, 0x44, 0x00, 0x84, 0x00,
   0x04, 0x01, 0x04, 0x02, 0x04, 0x04, 0x04, 0x02, 0x04, 0x01, 0x84, 0x00,
   0x44, 0x00, 0x24, 0x00, 0x14, 0x00, 0x0c, 0x00, 0x00, 0x00, 0x00, 0x00 };
