G04 ================== begin FILE IDENTIFICATION RECORD ==================*
G04 Layout Name:  C:/mote/boards/iMote2/GenericSensorboard/Rev1a/Allegro/GenericSensorboardHalfSize_final.brd*
G04 Film Name:    BOTTOMPASTEMASK*
G04 File Format:  Gerber RS274X*
G04 File Origin:  15.7-s002*
G04 Origin Date:  Mon Mar 26 13:45:56 2007*
G04 *
G04 Layer:  PIN/PASTEMASK_BOTTOM*
G04 Layer:  PACKAGE GEOMETRY/PASTEMASK_BOTTOM*
G04 Layer:  BOARD GEOMETRY/OUTLINE*
G04 *
G04 Offset:    (0.00 0.00)*
G04 Mirror:    No*
G04 Mode:      Positive*
G04 Rotation:  0*
G04 FullContactRelief:  No*
G04 UndefLineWidth:     0.00*
G04 ================== end FILE IDENTIFICATION RECORD ====================*
%FSLAX55Y55*MOIN*%
%IR0*IPPOS*OFA0.00000B0.00000*MIA0B0*SFA1.00000B1.00000*%
%ADD25R,.1X.04*%
%ADD26R,.04X.1*%
%ADD22R,.1X.06*%
%ADD19R,.06X.1*%
%ADD10R,.135X.07*%
%ADD12R,.05118X.13386*%
%ADD14R,.02X.02*%
%ADD21R,.02X.02*%
%ADD24R,.04X.02*%
%ADD20R,.05X.04*%
%ADD18R,.04X.05*%
%ADD13R,.035X.03*%
%ADD17R,.03X.035*%
%ADD15R,.013X.065*%
%ADD16R,.02756X.03937*%
%ADD23R,.03937X.02756*%
%ADD11R,.02756X.08189*%
%LPD*%
G75*
G54D10*
X55000Y53500D03*
Y40500D03*
Y68000D03*
Y98000D03*
Y86000D03*
G54D11*
X80708Y15905D03*
X76771D03*
X78740Y31339D03*
X74803D03*
X78740Y110393D03*
X74803D03*
X70866D03*
X66929D03*
X80708Y125827D03*
X76771D03*
X72834D03*
X68897D03*
X64960D03*
X108268Y15905D03*
X104331D03*
X100394D03*
X96457D03*
X92519D03*
X88582D03*
X84645D03*
X110236Y31339D03*
X106299D03*
X102362D03*
X98425D03*
X94488D03*
X90551D03*
X86614D03*
X82677D03*
X110236Y110393D03*
X106299D03*
X102362D03*
X98425D03*
X94488D03*
X90551D03*
X86614D03*
X82677D03*
X108268Y125827D03*
X104331D03*
X100394D03*
X96457D03*
X92519D03*
X88582D03*
X84645D03*
X112205Y15905D03*
X114173Y31339D03*
X122047Y110393D03*
X118110D03*
X114173D03*
X124016Y125827D03*
X120079D03*
X116142D03*
X112205D03*
G54D20*
X136000Y94500D03*
Y101500D03*
X163000Y74500D03*
Y81500D03*
G54D21*
X146750Y41000D03*
X150250D03*
X183750Y120000D03*
X180250D03*
Y115500D03*
X183750D03*
G54D12*
X63582Y23622D03*
X53740Y118110D03*
X125394Y23622D03*
X135236Y118110D03*
G54D13*
X110800Y4000D03*
X105200D03*
G54D22*
X173000Y63000D03*
Y76000D03*
G54D23*
X170882Y85260D03*
Y89000D03*
Y92740D03*
X154882Y100260D03*
Y104000D03*
Y107740D03*
X165118D03*
Y100260D03*
Y104000D03*
X181118Y92740D03*
Y85260D03*
Y89000D03*
G54D14*
X101000Y47750D03*
Y51250D03*
X110500Y47750D03*
Y51250D03*
X101000Y55750D03*
Y59250D03*
X110500Y55750D03*
Y59250D03*
X121000Y47750D03*
Y51250D03*
Y55750D03*
Y59250D03*
X141000Y113750D03*
Y117250D03*
Y121750D03*
Y125250D03*
X176000Y115250D03*
Y118750D03*
G54D15*
X109600Y70700D03*
X107040D03*
Y93300D03*
X109600D03*
X124960Y70700D03*
X122400D03*
X119840D03*
X117280D03*
X114720D03*
X112160D03*
Y93300D03*
X114720D03*
X117280D03*
X119840D03*
X122400D03*
X124960D03*
G54D24*
X147000Y93500D03*
X156000D03*
G54D16*
X138760Y46382D03*
Y56618D03*
X146240Y46382D03*
X142500D03*
Y56618D03*
X146240D03*
G54D25*
X149500Y126000D03*
Y115000D03*
G54D17*
X133000Y50700D03*
Y56300D03*
G54D26*
X183500Y106500D03*
X172500D03*
G54D18*
X140100Y35000D03*
X133100D03*
G54D19*
X136500Y83500D03*
X149500D03*
M02*
