G04 ================== begin FILE IDENTIFICATION RECORD ==================*
G04 Layout Name:  C:/mote/boards/iMote2/GenericSensorboard/Rev1a/Allegro/GenericSensorboardHalfSize_final.brd*
G04 Film Name:    FabNotes*
G04 File Format:  Gerber RS274X*
G04 File Origin:  15.7-s002*
G04 Origin Date:  Mon Mar 26 13:45:56 2007*
G04 *
G04 Layer:  MANUFACTURING/NCLEGEND-1-4*
G04 Layer:  MANUFACTURING/NCDRILL_LEGEND*
G04 Layer:  MANUFACTURING/NCDRILL_FIGURE*
G04 Layer:  DRAWING FORMAT/OUTLINE*
G04 Layer:  BOARD GEOMETRY/OUTLINE*
G04 Layer:  BOARD GEOMETRY/DIMENSION*
G04 *
G04 Offset:    (0.00 0.00)*
G04 Mirror:    No*
G04 Mode:      Positive*
G04 Rotation:  0*
G04 FullContactRelief:  No*
G04 UndefLineWidth:     5.00*
G04 ================== end FILE IDENTIFICATION RECORD ====================*
%FSLAX55Y55*MOIN*%
%IR0*IPPOS*OFA0.00000B0.00000*MIA0B0*SFA1.00000B1.00000*%
%AMMACRO11*
1,1,.005,.025,0.0*
20,1,.005,.025,0.0,.02462,-.004341,0.0*
1,1,.005,.02462,-.004341*
20,1,.005,.02462,-.004341,.023492,-.008551,0.0*
1,1,.005,.023492,-.008551*
20,1,.005,.023492,-.008551,.021651,-.0125,0.0*
1,1,.005,.021651,-.0125*
20,1,.005,.021651,-.0125,.019151,-.01607,0.0*
1,1,.005,.019151,-.01607*
20,1,.005,.019151,-.01607,.01607,-.019151,0.0*
1,1,.005,.01607,-.019151*
20,1,.005,.01607,-.019151,.0125,-.021651,0.0*
1,1,.005,.0125,-.021651*
20,1,.005,.0125,-.021651,.008551,-.023492,0.0*
1,1,.005,.008551,-.023492*
20,1,.005,.008551,-.023492,.004341,-.02462,0.0*
1,1,.005,.004341,-.02462*
20,1,.005,.004341,-.02462,0.0,-.025,0.0*
1,1,.005,0.0,-.025*
20,1,.005,0.0,-.025,-.004341,-.02462,0.0*
1,1,.005,-.004341,-.02462*
20,1,.005,-.004341,-.02462,-.008551,-.023492,0.0*
1,1,.005,-.008551,-.023492*
20,1,.005,-.008551,-.023492,-.0125,-.021651,0.0*
1,1,.005,-.0125,-.021651*
20,1,.005,-.0125,-.021651,-.01607,-.019151,0.0*
1,1,.005,-.01607,-.019151*
20,1,.005,-.01607,-.019151,-.019151,-.01607,0.0*
1,1,.005,-.019151,-.01607*
20,1,.005,-.019151,-.01607,-.021651,-.0125,0.0*
1,1,.005,-.021651,-.0125*
20,1,.005,-.021651,-.0125,-.023492,-.008551,0.0*
1,1,.005,-.023492,-.008551*
20,1,.005,-.023492,-.008551,-.02462,-.004341,0.0*
1,1,.005,-.02462,-.004341*
20,1,.005,-.02462,-.004341,-.025,0.0,0.0*
1,1,.005,-.025,0.0*
20,1,.005,-.025,0.0,-.02462,.004341,0.0*
1,1,.005,-.02462,.004341*
20,1,.005,-.02462,.004341,-.023492,.008551,0.0*
1,1,.005,-.023492,.008551*
20,1,.005,-.023492,.008551,-.021651,.0125,0.0*
1,1,.005,-.021651,.0125*
20,1,.005,-.021651,.0125,-.019151,.01607,0.0*
1,1,.005,-.019151,.01607*
20,1,.005,-.019151,.01607,-.01607,.019151,0.0*
1,1,.005,-.01607,.019151*
20,1,.005,-.01607,.019151,-.0125,.021651,0.0*
1,1,.005,-.0125,.021651*
20,1,.005,-.0125,.021651,-.008551,.023492,0.0*
1,1,.005,-.008551,.023492*
20,1,.005,-.008551,.023492,-.004341,.02462,0.0*
1,1,.005,-.004341,.02462*
20,1,.005,-.004341,.02462,0.0,.025,0.0*
1,1,.005,0.0,.025*
20,1,.005,0.0,.025,.004341,.02462,0.0*
1,1,.005,.004341,.02462*
20,1,.005,.004341,.02462,.008551,.023492,0.0*
1,1,.005,.008551,.023492*
20,1,.005,.008551,.023492,.0125,.021651,0.0*
1,1,.005,.0125,.021651*
20,1,.005,.0125,.021651,.01607,.019151,0.0*
1,1,.005,.01607,.019151*
20,1,.005,.01607,.019151,.019151,.01607,0.0*
1,1,.005,.019151,.01607*
20,1,.005,.019151,.01607,.021651,.0125,0.0*
1,1,.005,.021651,.0125*
20,1,.005,.021651,.0125,.023492,.008551,0.0*
1,1,.005,.023492,.008551*
20,1,.005,.023492,.008551,.02462,.004341,0.0*
1,1,.005,.02462,.004341*
20,1,.005,.02462,.004341,.025,0.0,0.0*
1,1,.005,.025,0.0*
1,1,.005,-.00458,-.00417*
20,1,.005,-.00458,-.00417,.00542,-.00417,0.0*
1,1,.005,.00542,-.00417*
1,1,.005,0.0,.00125*
20,1,.005,0.0,.00125,0.0,-.00958,0.0*
1,1,.005,0.0,-.00958*
%
%ADD11MACRO11*%
%AMMACRO12*
1,1,.005,.02559,0.0*
20,1,.005,.02559,0.0,0.0,-.02559,0.0*
1,1,.005,0.0,-.02559*
20,1,.005,0.0,-.02559,-.02559,0.0,0.0*
1,1,.005,-.02559,0.0*
20,1,.005,-.02559,0.0,0.0,.02559,0.0*
1,1,.005,0.0,.02559*
20,1,.005,0.0,.02559,.02559,0.0,0.0*
1,1,.005,.02559,0.0*
1,1,.005,-.00938,-.01364*
20,1,.005,-.00938,-.01364,.00939,.00512,0.0*
1,1,.005,.00939,.00512*
1,1,.005,0.0,.00854*
20,1,.005,0.0,.00854,0.0,-.01705,0.0*
1,1,.005,0.0,-.01705*
1,1,.005,.00939,-.01364*
20,1,.005,.00939,-.01364,-.00938,.00512,0.0*
1,1,.005,-.00938,.00512*
1,1,.005,-.01279,-.00426*
20,1,.005,-.01279,-.00426,.0128,-.00426,0.0*
1,1,.005,.0128,-.00426*
%
%ADD12MACRO12*%
%AMMACRO10*
1,1,.005,.049215,0.0*
20,1,.005,.049215,0.0,.048467,-.008546,0.0*
1,1,.005,.048467,-.008546*
20,1,.005,.048467,-.008546,.046247,-.016833,0.0*
1,1,.005,.046247,-.016833*
20,1,.005,.046247,-.016833,.042621,-.024607,0.0*
1,1,.005,.042621,-.024607*
20,1,.005,.042621,-.024607,.037701,-.031635,0.0*
1,1,.005,.037701,-.031635*
20,1,.005,.037701,-.031635,.031635,-.037701,0.0*
1,1,.005,.031635,-.037701*
20,1,.005,.031635,-.037701,.024608,-.042621,0.0*
1,1,.005,.024608,-.042621*
20,1,.005,.024608,-.042621,.016833,-.046247,0.0*
1,1,.005,.016833,-.046247*
20,1,.005,.016833,-.046247,.008546,-.048467,0.0*
1,1,.005,.008546,-.048467*
20,1,.005,.008546,-.048467,0.0,-.049215,0.0*
1,1,.005,0.0,-.049215*
20,1,.005,0.0,-.049215,-.008546,-.048467,0.0*
1,1,.005,-.008546,-.048467*
20,1,.005,-.008546,-.048467,-.016833,-.046247,0.0*
1,1,.005,-.016833,-.046247*
20,1,.005,-.016833,-.046247,-.024607,-.042621,0.0*
1,1,.005,-.024607,-.042621*
20,1,.005,-.024607,-.042621,-.031635,-.037701,0.0*
1,1,.005,-.031635,-.037701*
20,1,.005,-.031635,-.037701,-.037701,-.031635,0.0*
1,1,.005,-.037701,-.031635*
20,1,.005,-.037701,-.031635,-.042621,-.024608,0.0*
1,1,.005,-.042621,-.024608*
20,1,.005,-.042621,-.024608,-.046247,-.016833,0.0*
1,1,.005,-.046247,-.016833*
20,1,.005,-.046247,-.016833,-.048467,-.008546,0.0*
1,1,.005,-.048467,-.008546*
20,1,.005,-.048467,-.008546,-.049215,0.0,0.0*
1,1,.005,-.049215,0.0*
20,1,.005,-.049215,0.0,-.048467,.008546,0.0*
1,1,.005,-.048467,.008546*
20,1,.005,-.048467,.008546,-.046247,.016833,0.0*
1,1,.005,-.046247,.016833*
20,1,.005,-.046247,.016833,-.042621,.024607,0.0*
1,1,.005,-.042621,.024607*
20,1,.005,-.042621,.024607,-.037701,.031635,0.0*
1,1,.005,-.037701,.031635*
20,1,.005,-.037701,.031635,-.031635,.037701,0.0*
1,1,.005,-.031635,.037701*
20,1,.005,-.031635,.037701,-.024608,.042621,0.0*
1,1,.005,-.024608,.042621*
20,1,.005,-.024608,.042621,-.016833,.046247,0.0*
1,1,.005,-.016833,.046247*
20,1,.005,-.016833,.046247,-.008546,.048467,0.0*
1,1,.005,-.008546,.048467*
20,1,.005,-.008546,.048467,0.0,.049215,0.0*
1,1,.005,0.0,.049215*
20,1,.005,0.0,.049215,.008546,.048467,0.0*
1,1,.005,.008546,.048467*
20,1,.005,.008546,.048467,.016833,.046247,0.0*
1,1,.005,.016833,.046247*
20,1,.005,.016833,.046247,.024607,.042621,0.0*
1,1,.005,.024607,.042621*
20,1,.005,.024607,.042621,.031635,.037701,0.0*
1,1,.005,.031635,.037701*
20,1,.005,.031635,.037701,.037701,.031635,0.0*
1,1,.005,.037701,.031635*
20,1,.005,.037701,.031635,.042621,.024608,0.0*
1,1,.005,.042621,.024608*
20,1,.005,.042621,.024608,.046247,.016833,0.0*
1,1,.005,.046247,.016833*
20,1,.005,.046247,.016833,.048467,.008546,0.0*
1,1,.005,.048467,.008546*
20,1,.005,.048467,.008546,.049215,0.0,0.0*
1,1,.005,.049215,0.0*
1,1,.005,-.01066,-.0082*
20,1,.005,-.01066,-.0082,.01067,-.0082,0.0*
1,1,.005,.01067,-.0082*
%
%ADD10MACRO10*%
%AMMACRO13*
1,1,.005,.025,0.0*
20,1,.005,.025,0.0,0.0,-.025,0.0*
1,1,.005,0.0,-.025*
20,1,.005,0.0,-.025,-.025,0.0,0.0*
1,1,.005,-.025,0.0*
20,1,.005,-.025,0.0,0.0,.025,0.0*
1,1,.005,0.0,.025*
20,1,.005,0.0,.025,.025,0.0,0.0*
1,1,.005,.025,0.0*
1,1,.005,-.00625,.00417*
20,1,.005,-.00625,.00417,.00625,-.0125,0.0*
1,1,.005,.00625,-.0125*
1,1,.005,.00625,.00417*
20,1,.005,.00625,.00417,-.00625,-.0125,0.0*
1,1,.005,-.00625,-.0125*
%
%ADD13MACRO13*%
%ADD14C,.005*%
G75*
%LPD*%
G75*
G36*
G01X380000Y250000D02*
Y255000D01*
X500000D01*
Y250000D01*
X380000D01*
G37*
G36*
G01Y285000D02*
Y290000D01*
X500000D01*
Y285000D01*
X380000D01*
G37*
G36*
G01Y325000D02*
Y330000D01*
X500000D01*
Y325000D01*
X380000D01*
G37*
G36*
G01Y360000D02*
Y365000D01*
X500000D01*
Y360000D01*
X380000D01*
G37*
G54D10*
X53150Y9843D03*
X179134Y131890D03*
X248950Y76650D03*
G54D11*
X49750Y47750D03*
Y27000D03*
X72200Y9900D03*
X66100Y9800D03*
X80100Y3400D03*
X75100D03*
X69000D03*
X53500Y20600D03*
X62500Y11500D03*
X67034Y43635D03*
X53300Y47700D03*
X53250Y27000D03*
X74300Y23500D03*
X66500Y39500D03*
X53250Y33750D03*
X73000Y69500D03*
X72776Y63776D03*
X79075Y58500D03*
X69626Y62700D03*
X67000Y58000D03*
X77700Y65600D03*
X65000Y82700D03*
X78279Y82779D03*
X60500Y80000D03*
X53900Y76700D03*
X73000Y90200D03*
X53000Y109000D03*
X63751Y106800D03*
X65000Y92500D03*
X64250Y102250D03*
X53000Y135500D03*
X77176Y119324D03*
X108268Y9000D03*
X83100Y9800D03*
X100000Y4000D03*
X91750Y6250D03*
X97000Y9000D03*
X91700Y9900D03*
Y47600D03*
X82200Y23100D03*
X85400D03*
X82224Y45000D03*
X85374D03*
X97250Y47750D03*
X96000Y54000D03*
X100100Y70500D03*
X106800Y64000D03*
X107600Y57600D03*
X101000Y66300D03*
X104155Y70933D03*
X95000Y57500D03*
X104590Y92500D03*
X96000Y84500D03*
X100000Y104000D03*
X97000Y119300D03*
X117100Y4100D03*
X136000Y12000D03*
X140000Y41500D03*
X118500Y32000D03*
X117000Y40500D03*
X130000D03*
X130200Y24500D03*
X115000Y60500D03*
X134000Y70600D03*
X128000Y57500D03*
X113779Y82279D03*
X118400Y53800D03*
X130100Y54800D03*
X129500Y112000D03*
X130500Y84000D03*
X136200Y136000D03*
X148000Y9300D03*
X154500Y37000D03*
X166100Y38800D03*
X150900Y35900D03*
X151750Y70750D03*
X160500Y62500D03*
X156500Y71500D03*
X166100Y58400D03*
X154300Y66900D03*
X165118Y111718D03*
X157500Y112500D03*
X165500Y93000D03*
X148500Y109500D03*
X161500Y128000D03*
X158000D03*
X167300Y124000D03*
X171500Y122500D03*
X157500Y118000D03*
X158500Y138500D03*
X153500D03*
X182300Y4800D03*
X174329Y40500D03*
X179000D03*
X183000Y78500D03*
X177400Y91000D03*
X248950Y104750D03*
G54D12*
Y20450D03*
G54D13*
Y48550D03*
G54D14*
G01X-38000Y57250D02*
X-42650D01*
Y69750D01*
X-38000D01*
G01X-59700Y82250D02*
Y94750D01*
X-61560Y92250D01*
G01Y82250D02*
X-57840D01*
G01X-45440D02*
Y94750D01*
X-51175Y85792D01*
X-43425D01*
G01X-34900Y82250D02*
Y94750D01*
X-36760Y92250D01*
G01Y82250D02*
X-33040D01*
G01X-22810D02*
X-22500Y84958D01*
X-22035Y87250D01*
X-21415Y89333D01*
X-20640Y91625D01*
X-19400Y94750D01*
X-25600D01*
G01X-10100Y81833D02*
X-10410Y82042D01*
Y82458D01*
X-10100Y82667D01*
X-9790Y82458D01*
Y82042D01*
X-10100Y81833D01*
G01X-1110Y84750D02*
X-180Y83291D01*
X1060Y82458D01*
X2455Y82250D01*
X3695Y82458D01*
X4935Y83500D01*
X5710Y84750D01*
X5865Y86000D01*
X5555Y87458D01*
X4470Y88500D01*
X3385Y88917D01*
X1990D01*
G01X3385D02*
X4315Y89542D01*
X5090Y90583D01*
X5400Y91833D01*
X5090Y93083D01*
X4315Y94125D01*
X2920Y94750D01*
X1525Y94542D01*
X130Y93708D01*
G01X11755Y92667D02*
X12685Y93916D01*
X13770Y94542D01*
X15010Y94750D01*
X16560Y94333D01*
X17645Y93292D01*
X17955Y92042D01*
X17800Y90791D01*
X17180Y89750D01*
X14080Y87667D01*
X12685Y86208D01*
X11755Y84125D01*
X11445Y82250D01*
X17955D01*
G01X-25000Y15000D02*
X-22500Y0D01*
X-20000Y15000D01*
X-25000D01*
G01X-22500Y47875D02*
Y0D01*
G01X33307D02*
X-32500D01*
G01X-32110Y59750D02*
X-31180Y58291D01*
X-29940Y57458D01*
X-28545Y57250D01*
X-27305Y57458D01*
X-26065Y58500D01*
X-25290Y59750D01*
X-25135Y61000D01*
X-25445Y62458D01*
X-26530Y63500D01*
X-27615Y63917D01*
X-29010D01*
G01X-27615D02*
X-26685Y64542D01*
X-25910Y65583D01*
X-25600Y66833D01*
X-25910Y68083D01*
X-26685Y69125D01*
X-28080Y69750D01*
X-29475Y69542D01*
X-30870Y68708D01*
G01X-19245Y62458D02*
X-18160Y63917D01*
X-17230Y64750D01*
X-15990Y65167D01*
X-14905Y64750D01*
X-14130Y63917D01*
X-13510Y62667D01*
X-13355Y61208D01*
X-13510Y59958D01*
X-14130Y58708D01*
X-15060Y57667D01*
X-16145Y57250D01*
X-17385Y57667D01*
X-18470Y58916D01*
X-19090Y60792D01*
X-19245Y62875D01*
X-18935Y65583D01*
X-18470Y67042D01*
X-17695Y68500D01*
X-16610Y69542D01*
X-15525Y69750D01*
X-14440Y69333D01*
X-13665Y68292D01*
G01X-22500Y104125D02*
Y141732D01*
G01X-20000Y126732D02*
X-22500Y141732D01*
X-25000Y126732D01*
X-20000D01*
G01X33307Y141732D02*
X-32500D01*
G01X-7000Y57250D02*
X-2350D01*
Y69750D01*
X-7000D01*
G01X43307Y0D02*
X188976D01*
Y141732D01*
X43307D01*
Y0D01*
G01Y151732D02*
Y191500D01*
G01X58307Y184000D02*
X43307Y181500D01*
X58307Y179000D01*
Y184000D01*
G01X70775Y181500D02*
X43307D01*
G01X106500Y162750D02*
X101850D01*
Y175250D01*
X106500D01*
G01X84800Y187750D02*
Y200250D01*
X82940Y197750D01*
G01Y187750D02*
X86660D01*
G01X99060D02*
Y200250D01*
X93325Y191292D01*
X101075D01*
G01X106190Y189625D02*
X107120Y188583D01*
X108205Y187958D01*
X109600Y187750D01*
X110995Y188167D01*
X112080Y189000D01*
X112855Y190458D01*
X113010Y192125D01*
X112700Y193792D01*
X111925Y194833D01*
X110840Y195667D01*
X109755Y195875D01*
X108670Y195667D01*
X107275Y194833D01*
X107740Y200250D01*
X111925D01*
G01X119055Y192958D02*
X120140Y194417D01*
X121070Y195250D01*
X122310Y195667D01*
X123395Y195250D01*
X124170Y194417D01*
X124790Y193167D01*
X124945Y191708D01*
X124790Y190458D01*
X124170Y189208D01*
X123240Y188167D01*
X122155Y187750D01*
X120915Y188167D01*
X119830Y189416D01*
X119210Y191292D01*
X119055Y193375D01*
X119365Y196083D01*
X119830Y197542D01*
X120605Y199000D01*
X121690Y200042D01*
X122775Y200250D01*
X123860Y199833D01*
X124635Y198792D01*
G01X134400Y187333D02*
X134090Y187542D01*
Y187958D01*
X134400Y188167D01*
X134710Y187958D01*
Y187542D01*
X134400Y187333D01*
G01X143855Y192958D02*
X144940Y194417D01*
X145870Y195250D01*
X147110Y195667D01*
X148195Y195250D01*
X148970Y194417D01*
X149590Y193167D01*
X149745Y191708D01*
X149590Y190458D01*
X148970Y189208D01*
X148040Y188167D01*
X146955Y187750D01*
X145715Y188167D01*
X144630Y189416D01*
X144010Y191292D01*
X143855Y193375D01*
X144165Y196083D01*
X144630Y197542D01*
X145405Y199000D01*
X146490Y200042D01*
X147575Y200250D01*
X148660Y199833D01*
X149435Y198792D01*
G01X156565Y189208D02*
X157650Y188167D01*
X158890Y187750D01*
X160130Y188167D01*
X161215Y189416D01*
X161990Y191292D01*
X162300Y193167D01*
Y195458D01*
X161990Y197333D01*
X161215Y199000D01*
X160285Y199833D01*
X159200Y200250D01*
X157960Y199833D01*
X157030Y199000D01*
X156410Y197750D01*
X156100Y196083D01*
X156410Y194625D01*
X157185Y193167D01*
X158115Y192333D01*
X159200Y192125D01*
X160440Y192541D01*
X161370Y193583D01*
X162300Y195458D01*
G01X137500Y162750D02*
X142150D01*
Y175250D01*
X137500D01*
G01X112390Y165250D02*
X113320Y163791D01*
X114560Y162958D01*
X115955Y162750D01*
X117195Y162958D01*
X118435Y164000D01*
X119210Y165250D01*
X119365Y166500D01*
X119055Y167958D01*
X117970Y169000D01*
X116885Y169417D01*
X115490D01*
G01X116885D02*
X117815Y170042D01*
X118590Y171083D01*
X118900Y172333D01*
X118590Y173583D01*
X117815Y174625D01*
X116420Y175250D01*
X115025Y175042D01*
X113630Y174208D01*
G01X127890Y162750D02*
X128200Y165458D01*
X128665Y167750D01*
X129285Y169833D01*
X130060Y172125D01*
X131300Y175250D01*
X125100D01*
G01X188976Y151732D02*
Y191500D01*
G01X173976Y179000D02*
X188976Y181500D01*
X173976Y184000D01*
Y179000D01*
G01X173225Y181500D02*
X188976D01*
G01X204000Y6400D02*
Y200000D01*
X687600D01*
Y6400D01*
X204000D01*
G01Y34500D02*
X687600D01*
G01X204000Y62600D02*
X687600D01*
G01X204000Y90700D02*
X687600D01*
G01X204000Y118800D02*
X687600D01*
G01X215005Y128150D02*
Y140650D01*
X220895D01*
G01X218725Y134608D02*
X215005D01*
G01X228490Y140650D02*
X232210D01*
G01X230350D02*
Y128150D01*
G01X228490D02*
X232210D01*
G01X243680Y134400D02*
X246780D01*
Y130650D01*
X245850Y129400D01*
X244765Y128567D01*
X243215Y128150D01*
X241665Y128567D01*
X240580Y129400D01*
X239650Y130650D01*
X239030Y132108D01*
X238720Y133775D01*
Y135233D01*
X239030Y136483D01*
X239650Y137942D01*
X240580Y139192D01*
X241510Y140025D01*
X242750Y140650D01*
X243835D01*
X245075Y140233D01*
X246005Y139400D01*
G01X251740Y140650D02*
Y131692D01*
X252360Y129816D01*
X253600Y128567D01*
X255150Y128150D01*
X256700Y128567D01*
X257940Y129816D01*
X258560Y131692D01*
Y140650D01*
G01X264450Y128150D02*
Y140650D01*
X268325D01*
X269565Y140025D01*
X270340Y139192D01*
X270650Y137525D01*
X270340Y135858D01*
X269410Y134817D01*
X268325Y134192D01*
X264450D01*
G01X268325D02*
X270650Y128150D01*
G01X283050D02*
X276850D01*
Y140650D01*
X283050D01*
G01X280570Y134608D02*
X276850D01*
G01X204000Y146900D02*
X687600D01*
G01X204000Y175000D02*
X687600D01*
G01X214560Y412340D02*
X215730Y411040D01*
X217095Y410260D01*
X218850Y410000D01*
X220605Y410520D01*
X221970Y411560D01*
X222945Y413380D01*
X223140Y415460D01*
X222750Y417540D01*
X221775Y418840D01*
X220410Y419880D01*
X219045Y420140D01*
X217680Y419880D01*
X215925Y418840D01*
X216510Y425600D01*
X221775D01*
G01X236750Y409480D02*
X236360Y409740D01*
Y410260D01*
X236750Y410520D01*
X237140Y410260D01*
Y409740D01*
X236750Y409480D01*
G01X255625Y404800D02*
X257575Y407400D01*
X258550Y410000D01*
Y420400D01*
X257575Y423000D01*
X255625Y425600D01*
G01X290450Y409480D02*
X290060Y409740D01*
Y410260D01*
X290450Y410520D01*
X290840Y410260D01*
Y409740D01*
X290450Y409480D01*
G01X308350Y425600D02*
X306790Y425080D01*
X305620Y423780D01*
X304840Y422220D01*
X304255Y420140D01*
X304060Y417800D01*
X304255Y415460D01*
X304840Y413380D01*
X305620Y411820D01*
X306790Y410520D01*
X308350Y410000D01*
X309910Y410520D01*
X311080Y411820D01*
X311860Y413380D01*
X312445Y415460D01*
X312640Y417800D01*
X312445Y420140D01*
X311860Y422220D01*
X311080Y423780D01*
X309910Y425080D01*
X308350Y425600D01*
G01X321960Y412340D02*
X323130Y411040D01*
X324495Y410260D01*
X326250Y410000D01*
X328005Y410520D01*
X329370Y411560D01*
X330345Y413380D01*
X330540Y415460D01*
X330150Y417540D01*
X329175Y418840D01*
X327810Y419880D01*
X326445Y420140D01*
X325080Y419880D01*
X323325Y418840D01*
X323910Y425600D01*
X329175D01*
G01X344150Y410000D02*
Y425600D01*
X341810Y422480D01*
G01Y410000D02*
X346490D01*
G01X360295Y422220D02*
X361270Y425600D01*
G01X363805D02*
X362830Y422220D01*
G01X394535Y410000D02*
Y425600D01*
G01Y418060D02*
X395510Y419360D01*
X396485Y420140D01*
X398045Y420400D01*
X399215Y420140D01*
X400580Y419100D01*
X401165Y417540D01*
Y410000D01*
G01X415750D02*
X414580Y410260D01*
X413410Y411300D01*
X412630Y413120D01*
X412240Y415200D01*
X412630Y417280D01*
X413410Y419100D01*
X414580Y420140D01*
X415750Y420400D01*
X416920Y420140D01*
X418090Y419100D01*
X418870Y417280D01*
X419065Y415200D01*
X418870Y413120D01*
X418090Y411300D01*
X416920Y410260D01*
X415750Y410000D01*
G01X433650D02*
Y425600D01*
G01X448625Y417020D02*
X454865D01*
X454280Y418840D01*
X453305Y419880D01*
X451940Y420400D01*
X450575Y420140D01*
X449405Y419360D01*
X448625Y417540D01*
X448235Y415980D01*
Y414420D01*
X448625Y412860D01*
X449600Y411300D01*
X450770Y410260D01*
X452135Y410000D01*
X453500Y410520D01*
X454865Y412080D01*
G01X466525Y411820D02*
X467500Y410780D01*
X468865Y410000D01*
X470035D01*
X471205Y410520D01*
X471985Y411300D01*
X472375Y412340D01*
X472180Y413900D01*
X471400Y414680D01*
X467890Y416240D01*
X467110Y418060D01*
X467500Y419360D01*
X468280Y420140D01*
X469450Y420400D01*
X470620Y420140D01*
X471790Y419360D01*
G01X499400Y410000D02*
Y420400D01*
G01Y417540D02*
X499985Y418840D01*
X500960Y419880D01*
X502325Y420400D01*
X503690Y419880D01*
X504665Y418840D01*
X505250Y417540D01*
Y410000D01*
G01Y417540D02*
X505835Y418840D01*
X506810Y419880D01*
X508175Y420400D01*
X509540Y419880D01*
X510515Y418840D01*
X511100Y417280D01*
Y410000D01*
G01X526660D02*
Y420400D01*
G01Y418580D02*
X525880Y419620D01*
X524710Y420140D01*
X523345Y420400D01*
X521980Y419880D01*
X520810Y418840D01*
X520030Y417280D01*
X519640Y415200D01*
X520030Y413120D01*
X520810Y411560D01*
X521980Y410520D01*
X523345Y410000D01*
X524710Y410260D01*
X525880Y411040D01*
X526660Y412080D01*
G01X536955Y405320D02*
X538125Y404800D01*
X539685Y405320D01*
X540660Y406360D01*
X541440Y407660D01*
X542610Y411820D01*
X545145Y420400D01*
G01X538905D02*
X542610Y411820D01*
G01X573925D02*
X574900Y410780D01*
X576265Y410000D01*
X577435D01*
X578605Y410520D01*
X579385Y411300D01*
X579775Y412340D01*
X579580Y413900D01*
X578800Y414680D01*
X575290Y416240D01*
X574510Y418060D01*
X574900Y419360D01*
X575680Y420140D01*
X576850Y420400D01*
X578020Y420140D01*
X579190Y419360D01*
G01X591435Y410000D02*
Y425600D01*
G01Y418060D02*
X592410Y419360D01*
X593385Y420140D01*
X594945Y420400D01*
X596115Y420140D01*
X597480Y419100D01*
X598065Y417540D01*
Y410000D01*
G01X612650D02*
X611480Y410260D01*
X610310Y411300D01*
X609530Y413120D01*
X609140Y415200D01*
X609530Y417280D01*
X610310Y419100D01*
X611480Y420140D01*
X612650Y420400D01*
X613820Y420140D01*
X614990Y419100D01*
X615770Y417280D01*
X615965Y415200D01*
X615770Y413120D01*
X614990Y411300D01*
X613820Y410260D01*
X612650Y410000D01*
G01X627820D02*
Y420400D01*
G01Y418320D02*
X628795Y419360D01*
X629770Y420140D01*
X631135Y420400D01*
X632110Y420140D01*
X633280Y419360D01*
G01X648450Y425600D02*
Y410000D01*
G01X645720Y420400D02*
X651180D01*
G01X684250Y425600D02*
Y410000D01*
G01X681520Y420400D02*
X686980D01*
G01X702150Y410000D02*
X700980Y410260D01*
X699810Y411300D01*
X699030Y413120D01*
X698640Y415200D01*
X699030Y417280D01*
X699810Y419100D01*
X700980Y420140D01*
X702150Y420400D01*
X703320Y420140D01*
X704490Y419100D01*
X705270Y417280D01*
X705465Y415200D01*
X705270Y413120D01*
X704490Y411300D01*
X703320Y410260D01*
X702150Y410000D01*
G01X741460D02*
Y420400D01*
G01Y418580D02*
X740680Y419620D01*
X739510Y420140D01*
X738145Y420400D01*
X736780Y419880D01*
X735610Y418840D01*
X734830Y417280D01*
X734440Y415200D01*
X734830Y413120D01*
X735610Y411560D01*
X736780Y410520D01*
X738145Y410000D01*
X739510Y410260D01*
X740680Y411040D01*
X741460Y412080D01*
G01X759360Y425600D02*
Y410000D01*
G01Y412340D02*
X758580Y411040D01*
X757410Y410260D01*
X756045Y410000D01*
X754485Y410520D01*
X753315Y411820D01*
X752535Y413380D01*
X752340Y415200D01*
X752535Y417020D01*
X753315Y418580D01*
X754485Y419880D01*
X756045Y420400D01*
X757410Y420140D01*
X758385Y419620D01*
X759360Y418580D01*
G01X770630Y406100D02*
X771995Y405060D01*
X773165Y404800D01*
X774725Y405320D01*
X775895Y406620D01*
X776480Y408960D01*
Y420400D01*
G01Y424560D02*
X776090Y424820D01*
Y425340D01*
X776480Y425600D01*
X776870Y425340D01*
Y424820D01*
X776480Y424560D01*
G01X795160Y410000D02*
Y420400D01*
G01Y418580D02*
X794380Y419620D01*
X793210Y420140D01*
X791845Y420400D01*
X790480Y419880D01*
X789310Y418840D01*
X788530Y417280D01*
X788140Y415200D01*
X788530Y413120D01*
X789310Y411560D01*
X790480Y410520D01*
X791845Y410000D01*
X793210Y410260D01*
X794380Y411040D01*
X795160Y412080D01*
G01X812670Y419100D02*
X811305Y420140D01*
X810135Y420400D01*
X808575Y419880D01*
X807405Y418840D01*
X806625Y417020D01*
X806430Y415200D01*
X806625Y413380D01*
X807405Y411820D01*
X808575Y410520D01*
X810135Y410000D01*
X811500Y410520D01*
X812670Y411560D01*
G01X824525Y417020D02*
X830765D01*
X830180Y418840D01*
X829205Y419880D01*
X827840Y420400D01*
X826475Y420140D01*
X825305Y419360D01*
X824525Y417540D01*
X824135Y415980D01*
Y414420D01*
X824525Y412860D01*
X825500Y411300D01*
X826670Y410260D01*
X828035Y410000D01*
X829400Y410520D01*
X830765Y412080D01*
G01X842035Y410000D02*
Y420400D01*
G01Y417800D02*
X842815Y419100D01*
X843985Y420140D01*
X845545Y420400D01*
X846910Y420140D01*
X848080Y419100D01*
X848665Y417280D01*
Y410000D01*
G01X863250Y425600D02*
Y410000D01*
G01X860520Y420400D02*
X865980D01*
G01X902170Y419100D02*
X900805Y420140D01*
X899635Y420400D01*
X898075Y419880D01*
X896905Y418840D01*
X896125Y417020D01*
X895930Y415200D01*
X896125Y413380D01*
X896905Y411820D01*
X898075Y410520D01*
X899635Y410000D01*
X901000Y410520D01*
X902170Y411560D01*
G01X916950Y410000D02*
X915780Y410260D01*
X914610Y411300D01*
X913830Y413120D01*
X913440Y415200D01*
X913830Y417280D01*
X914610Y419100D01*
X915780Y420140D01*
X916950Y420400D01*
X918120Y420140D01*
X919290Y419100D01*
X920070Y417280D01*
X920265Y415200D01*
X920070Y413120D01*
X919290Y411300D01*
X918120Y410260D01*
X916950Y410000D01*
G01X931340Y404800D02*
Y420400D01*
G01Y418060D02*
X932315Y419360D01*
X933290Y420140D01*
X934850Y420400D01*
X936215Y420140D01*
X937580Y418840D01*
X938165Y417020D01*
X938360Y415200D01*
X938165Y413380D01*
X937580Y411560D01*
X936410Y410520D01*
X934850Y410000D01*
X933485Y410260D01*
X932120Y411040D01*
X931340Y412080D01*
G01X949240Y404800D02*
Y420400D01*
G01Y418060D02*
X950215Y419360D01*
X951190Y420140D01*
X952750Y420400D01*
X954115Y420140D01*
X955480Y418840D01*
X956065Y417020D01*
X956260Y415200D01*
X956065Y413380D01*
X955480Y411560D01*
X954310Y410520D01*
X952750Y410000D01*
X951385Y410260D01*
X950020Y411040D01*
X949240Y412080D01*
G01X967725Y417020D02*
X973965D01*
X973380Y418840D01*
X972405Y419880D01*
X971040Y420400D01*
X969675Y420140D01*
X968505Y419360D01*
X967725Y417540D01*
X967335Y415980D01*
Y414420D01*
X967725Y412860D01*
X968700Y411300D01*
X969870Y410260D01*
X971235Y410000D01*
X972600Y410520D01*
X973965Y412080D01*
G01X985820Y410000D02*
Y420400D01*
G01Y418320D02*
X986795Y419360D01*
X987770Y420140D01*
X989135Y420400D01*
X990110Y420140D01*
X991280Y419360D01*
G01X220590Y437000D02*
Y452600D01*
X213375Y441420D01*
X223125D01*
G01X236150Y436480D02*
X235760Y436740D01*
Y437260D01*
X236150Y437520D01*
X236540Y437260D01*
Y436740D01*
X236150Y436480D01*
G01X255025Y431800D02*
X256975Y434400D01*
X257950Y437000D01*
Y447400D01*
X256975Y450000D01*
X255025Y452600D01*
G01X285560D02*
Y441420D01*
X286340Y439080D01*
X287900Y437520D01*
X289850Y437000D01*
X291800Y437520D01*
X293360Y439080D01*
X294140Y441420D01*
Y452600D01*
G01X304825Y438820D02*
X305800Y437780D01*
X307165Y437000D01*
X308335D01*
X309505Y437520D01*
X310285Y438300D01*
X310675Y439340D01*
X310480Y440900D01*
X309700Y441680D01*
X306190Y443240D01*
X305410Y445060D01*
X305800Y446360D01*
X306580Y447140D01*
X307750Y447400D01*
X308920Y447140D01*
X310090Y446360D01*
G01X322725Y444020D02*
X328965D01*
X328380Y445840D01*
X327405Y446880D01*
X326040Y447400D01*
X324675Y447140D01*
X323505Y446360D01*
X322725Y444540D01*
X322335Y442980D01*
Y441420D01*
X322725Y439860D01*
X323700Y438300D01*
X324870Y437260D01*
X326235Y437000D01*
X327600Y437520D01*
X328965Y439080D01*
G01X358525Y438820D02*
X359500Y437780D01*
X360865Y437000D01*
X362035D01*
X363205Y437520D01*
X363985Y438300D01*
X364375Y439340D01*
X364180Y440900D01*
X363400Y441680D01*
X359890Y443240D01*
X359110Y445060D01*
X359500Y446360D01*
X360280Y447140D01*
X361450Y447400D01*
X362620Y447140D01*
X363790Y446360D01*
G01X379350Y452600D02*
Y437000D01*
G01X376620Y447400D02*
X382080D01*
G01X400760Y437000D02*
Y447400D01*
G01Y445580D02*
X399980Y446620D01*
X398810Y447140D01*
X397445Y447400D01*
X396080Y446880D01*
X394910Y445840D01*
X394130Y444280D01*
X393740Y442200D01*
X394130Y440120D01*
X394910Y438560D01*
X396080Y437520D01*
X397445Y437000D01*
X398810Y437260D01*
X399980Y438040D01*
X400760Y439080D01*
G01X411835Y437000D02*
Y447400D01*
G01Y444800D02*
X412615Y446100D01*
X413785Y447140D01*
X415345Y447400D01*
X416710Y447140D01*
X417880Y446100D01*
X418465Y444280D01*
Y437000D01*
G01X436560Y452600D02*
Y437000D01*
G01Y439340D02*
X435780Y438040D01*
X434610Y437260D01*
X433245Y437000D01*
X431685Y437520D01*
X430515Y438820D01*
X429735Y440380D01*
X429540Y442200D01*
X429735Y444020D01*
X430515Y445580D01*
X431685Y446880D01*
X433245Y447400D01*
X434610Y447140D01*
X435585Y446620D01*
X436560Y445580D01*
G01X454460Y437000D02*
Y447400D01*
G01Y445580D02*
X453680Y446620D01*
X452510Y447140D01*
X451145Y447400D01*
X449780Y446880D01*
X448610Y445840D01*
X447830Y444280D01*
X447440Y442200D01*
X447830Y440120D01*
X448610Y438560D01*
X449780Y437520D01*
X451145Y437000D01*
X452510Y437260D01*
X453680Y438040D01*
X454460Y439080D01*
G01X466120Y437000D02*
Y447400D01*
G01Y445320D02*
X467095Y446360D01*
X468070Y447140D01*
X469435Y447400D01*
X470410Y447140D01*
X471580Y446360D01*
G01X490260Y452600D02*
Y437000D01*
G01Y439340D02*
X489480Y438040D01*
X488310Y437260D01*
X486945Y437000D01*
X485385Y437520D01*
X484215Y438820D01*
X483435Y440380D01*
X483240Y442200D01*
X483435Y444020D01*
X484215Y445580D01*
X485385Y446880D01*
X486945Y447400D01*
X488310Y447140D01*
X489285Y446620D01*
X490260Y445580D01*
G01X524890Y437000D02*
Y452600D01*
X517675Y441420D01*
X527425D01*
G01X558350Y437000D02*
Y452600D01*
G01X579760Y437000D02*
Y447400D01*
G01Y445580D02*
X578980Y446620D01*
X577810Y447140D01*
X576445Y447400D01*
X575080Y446880D01*
X573910Y445840D01*
X573130Y444280D01*
X572740Y442200D01*
X573130Y440120D01*
X573910Y438560D01*
X575080Y437520D01*
X576445Y437000D01*
X577810Y437260D01*
X578980Y438040D01*
X579760Y439080D01*
G01X590055Y432320D02*
X591225Y431800D01*
X592785Y432320D01*
X593760Y433360D01*
X594540Y434660D01*
X595710Y438820D01*
X598245Y447400D01*
G01X592005D02*
X595710Y438820D01*
G01X609125Y444020D02*
X615365D01*
X614780Y445840D01*
X613805Y446880D01*
X612440Y447400D01*
X611075Y447140D01*
X609905Y446360D01*
X609125Y444540D01*
X608735Y442980D01*
Y441420D01*
X609125Y439860D01*
X610100Y438300D01*
X611270Y437260D01*
X612635Y437000D01*
X614000Y437520D01*
X615365Y439080D01*
G01X627220Y437000D02*
Y447400D01*
G01Y445320D02*
X628195Y446360D01*
X629170Y447140D01*
X630535Y447400D01*
X631510Y447140D01*
X632680Y446360D01*
G01X662825Y438820D02*
X663800Y437780D01*
X665165Y437000D01*
X666335D01*
X667505Y437520D01*
X668285Y438300D01*
X668675Y439340D01*
X668480Y440900D01*
X667700Y441680D01*
X664190Y443240D01*
X663410Y445060D01*
X663800Y446360D01*
X664580Y447140D01*
X665750Y447400D01*
X666920Y447140D01*
X668090Y446360D01*
G01X683650Y452600D02*
Y437000D01*
G01X680920Y447400D02*
X686380D01*
G01X705060Y437000D02*
Y447400D01*
G01Y445580D02*
X704280Y446620D01*
X703110Y447140D01*
X701745Y447400D01*
X700380Y446880D01*
X699210Y445840D01*
X698430Y444280D01*
X698040Y442200D01*
X698430Y440120D01*
X699210Y438560D01*
X700380Y437520D01*
X701745Y437000D01*
X703110Y437260D01*
X704280Y438040D01*
X705060Y439080D01*
G01X722570Y446100D02*
X721205Y447140D01*
X720035Y447400D01*
X718475Y446880D01*
X717305Y445840D01*
X716525Y444020D01*
X716330Y442200D01*
X716525Y440380D01*
X717305Y438820D01*
X718475Y437520D01*
X720035Y437000D01*
X721400Y437520D01*
X722570Y438560D01*
G01X734035Y437000D02*
Y452600D01*
G01X740275Y447400D02*
X734035Y441420D01*
G01X736570Y443760D02*
X740665Y437000D01*
G01X751935Y447400D02*
Y440120D01*
X752715Y438300D01*
X753885Y437260D01*
X755250Y437000D01*
X756615Y437260D01*
X757785Y438300D01*
X758565Y440120D01*
G01Y437000D02*
Y447400D01*
G01X769640Y431800D02*
Y447400D01*
G01Y445060D02*
X770615Y446360D01*
X771590Y447140D01*
X773150Y447400D01*
X774515Y447140D01*
X775880Y445840D01*
X776465Y444020D01*
X776660Y442200D01*
X776465Y440380D01*
X775880Y438560D01*
X774710Y437520D01*
X773150Y437000D01*
X771785Y437260D01*
X770420Y438040D01*
X769640Y439080D01*
G01X214360Y464920D02*
X215530Y463100D01*
X217090Y462060D01*
X218845Y461800D01*
X220405Y462060D01*
X221965Y463360D01*
X222940Y464920D01*
X223135Y466480D01*
X222745Y468300D01*
X221380Y469600D01*
X220015Y470120D01*
X218260D01*
G01X220015D02*
X221185Y470900D01*
X222160Y472200D01*
X222550Y473760D01*
X222160Y475320D01*
X221185Y476620D01*
X219430Y477400D01*
X217675Y477140D01*
X215920Y476100D01*
G01X236550Y461280D02*
X236160Y461540D01*
Y462060D01*
X236550Y462320D01*
X236940Y462060D01*
Y461540D01*
X236550Y461280D01*
G01X255425Y456600D02*
X257375Y459200D01*
X258350Y461800D01*
Y472200D01*
X257375Y474800D01*
X255425Y477400D01*
G01X285960Y461800D02*
Y477400D01*
X289860D01*
X291420Y476620D01*
X292590Y475580D01*
X293565Y474020D01*
X294345Y472200D01*
X294540Y469600D01*
X294345Y467000D01*
X293565Y465180D01*
X292590Y463620D01*
X291420Y462580D01*
X289860Y461800D01*
X285960D01*
G01X308150D02*
X306980Y462060D01*
X305810Y463100D01*
X305030Y464920D01*
X304640Y467000D01*
X305030Y469080D01*
X305810Y470900D01*
X306980Y471940D01*
X308150Y472200D01*
X309320Y471940D01*
X310490Y470900D01*
X311270Y469080D01*
X311465Y467000D01*
X311270Y464920D01*
X310490Y463100D01*
X309320Y462060D01*
X308150Y461800D01*
G01X340635D02*
Y472200D01*
G01Y469600D02*
X341415Y470900D01*
X342585Y471940D01*
X344145Y472200D01*
X345510Y471940D01*
X346680Y470900D01*
X347265Y469080D01*
Y461800D01*
G01X361850D02*
X360680Y462060D01*
X359510Y463100D01*
X358730Y464920D01*
X358340Y467000D01*
X358730Y469080D01*
X359510Y470900D01*
X360680Y471940D01*
X361850Y472200D01*
X363020Y471940D01*
X364190Y470900D01*
X364970Y469080D01*
X365165Y467000D01*
X364970Y464920D01*
X364190Y463100D01*
X363020Y462060D01*
X361850Y461800D01*
G01X379750Y477400D02*
Y461800D01*
G01X377020Y472200D02*
X382480D01*
G01X418670Y470900D02*
X417305Y471940D01*
X416135Y472200D01*
X414575Y471680D01*
X413405Y470640D01*
X412625Y468820D01*
X412430Y467000D01*
X412625Y465180D01*
X413405Y463620D01*
X414575Y462320D01*
X416135Y461800D01*
X417500Y462320D01*
X418670Y463360D01*
G01X433450Y461800D02*
X432280Y462060D01*
X431110Y463100D01*
X430330Y464920D01*
X429940Y467000D01*
X430330Y469080D01*
X431110Y470900D01*
X432280Y471940D01*
X433450Y472200D01*
X434620Y471940D01*
X435790Y470900D01*
X436570Y469080D01*
X436765Y467000D01*
X436570Y464920D01*
X435790Y463100D01*
X434620Y462060D01*
X433450Y461800D01*
G01X447840Y472200D02*
X451350Y461800D01*
X454860Y472200D01*
G01X466325Y468820D02*
X472565D01*
X471980Y470640D01*
X471005Y471680D01*
X469640Y472200D01*
X468275Y471940D01*
X467105Y471160D01*
X466325Y469340D01*
X465935Y467780D01*
Y466220D01*
X466325Y464660D01*
X467300Y463100D01*
X468470Y462060D01*
X469835Y461800D01*
X471200Y462320D01*
X472565Y463880D01*
G01X484420Y461800D02*
Y472200D01*
G01Y470120D02*
X485395Y471160D01*
X486370Y471940D01*
X487735Y472200D01*
X488710Y471940D01*
X489880Y471160D01*
G01X518855Y463880D02*
X520415Y462580D01*
X522170Y461800D01*
X523730D01*
X525290Y462580D01*
X526460Y463880D01*
X527045Y465700D01*
X526655Y467520D01*
X525680Y469080D01*
X523925Y470120D01*
X521585Y470640D01*
X520220Y471680D01*
X519635Y473500D01*
X520025Y475320D01*
X521000Y476620D01*
X522365Y477400D01*
X523730D01*
X525095Y476880D01*
X526265Y475580D01*
G01X540850Y472200D02*
Y461800D01*
G01Y476360D02*
X540460Y476620D01*
Y477140D01*
X540850Y477400D01*
X541240Y477140D01*
Y476620D01*
X540850Y476360D01*
G01X558750Y461800D02*
Y477400D01*
G01X573335Y461800D02*
Y477400D01*
G01X579575Y472200D02*
X573335Y466220D01*
G01X575870Y468560D02*
X579965Y461800D01*
G01X608355Y463880D02*
X609915Y462580D01*
X611670Y461800D01*
X613230D01*
X614790Y462580D01*
X615960Y463880D01*
X616545Y465700D01*
X616155Y467520D01*
X615180Y469080D01*
X613425Y470120D01*
X611085Y470640D01*
X609720Y471680D01*
X609135Y473500D01*
X609525Y475320D01*
X610500Y476620D01*
X611865Y477400D01*
X613230D01*
X614595Y476880D01*
X615765Y475580D01*
G01X633470Y470900D02*
X632105Y471940D01*
X630935Y472200D01*
X629375Y471680D01*
X628205Y470640D01*
X627425Y468820D01*
X627230Y467000D01*
X627425Y465180D01*
X628205Y463620D01*
X629375Y462320D01*
X630935Y461800D01*
X632300Y462320D01*
X633470Y463360D01*
G01X645520Y461800D02*
Y472200D01*
G01Y470120D02*
X646495Y471160D01*
X647470Y471940D01*
X648835Y472200D01*
X649810Y471940D01*
X650980Y471160D01*
G01X663225Y468820D02*
X669465D01*
X668880Y470640D01*
X667905Y471680D01*
X666540Y472200D01*
X665175Y471940D01*
X664005Y471160D01*
X663225Y469340D01*
X662835Y467780D01*
Y466220D01*
X663225Y464660D01*
X664200Y463100D01*
X665370Y462060D01*
X666735Y461800D01*
X668100Y462320D01*
X669465Y463880D01*
G01X681125Y468820D02*
X687365D01*
X686780Y470640D01*
X685805Y471680D01*
X684440Y472200D01*
X683075Y471940D01*
X681905Y471160D01*
X681125Y469340D01*
X680735Y467780D01*
Y466220D01*
X681125Y464660D01*
X682100Y463100D01*
X683270Y462060D01*
X684635Y461800D01*
X686000Y462320D01*
X687365Y463880D01*
G01X698635Y461800D02*
Y472200D01*
G01Y469600D02*
X699415Y470900D01*
X700585Y471940D01*
X702145Y472200D01*
X703510Y471940D01*
X704680Y470900D01*
X705265Y469080D01*
Y461800D01*
G01X733850Y477400D02*
Y461800D01*
X741650D01*
G01X755650D02*
X754480Y462060D01*
X753310Y463100D01*
X752530Y464920D01*
X752140Y467000D01*
X752530Y469080D01*
X753310Y470900D01*
X754480Y471940D01*
X755650Y472200D01*
X756820Y471940D01*
X757990Y470900D01*
X758770Y469080D01*
X758965Y467000D01*
X758770Y464920D01*
X757990Y463100D01*
X756820Y462060D01*
X755650Y461800D01*
G01X770820Y457900D02*
X772185Y456860D01*
X773745Y456600D01*
X775110Y456860D01*
X776280Y458160D01*
X777060Y459980D01*
Y472200D01*
G01Y470120D02*
X776280Y471160D01*
X775110Y471940D01*
X773745Y472200D01*
X772185Y471680D01*
X771210Y470640D01*
X770430Y468820D01*
X770040Y467000D01*
X770235Y465440D01*
X771015Y463620D01*
X772185Y462320D01*
X773745Y461800D01*
X774915Y462060D01*
X776280Y463100D01*
X777060Y464140D01*
G01X791450Y461800D02*
X790280Y462060D01*
X789110Y463100D01*
X788330Y464920D01*
X787940Y467000D01*
X788330Y469080D01*
X789110Y470900D01*
X790280Y471940D01*
X791450Y472200D01*
X792620Y471940D01*
X793790Y470900D01*
X794570Y469080D01*
X794765Y467000D01*
X794570Y464920D01*
X793790Y463100D01*
X792620Y462060D01*
X791450Y461800D01*
G01X214945Y499400D02*
X216115Y500960D01*
X217480Y501740D01*
X219040Y502000D01*
X220990Y501480D01*
X222355Y500180D01*
X222745Y498620D01*
X222550Y497060D01*
X221770Y495760D01*
X217870Y493160D01*
X216115Y491340D01*
X214945Y488740D01*
X214555Y486400D01*
X222745D01*
G01X236550Y485880D02*
X236160Y486140D01*
Y486660D01*
X236550Y486920D01*
X236940Y486660D01*
Y486140D01*
X236550Y485880D01*
G01X255425Y481200D02*
X257375Y483800D01*
X258350Y486400D01*
Y496800D01*
X257375Y499400D01*
X255425Y502000D01*
G01X285960Y486400D02*
Y502000D01*
X289860D01*
X291420Y501220D01*
X292590Y500180D01*
X293565Y498620D01*
X294345Y496800D01*
X294540Y494200D01*
X294345Y491600D01*
X293565Y489780D01*
X292590Y488220D01*
X291420Y487180D01*
X289860Y486400D01*
X285960D01*
G01X308150Y496800D02*
Y486400D01*
G01Y500960D02*
X307760Y501220D01*
Y501740D01*
X308150Y502000D01*
X308540Y501740D01*
Y501220D01*
X308150Y500960D01*
G01X323125Y493420D02*
X329365D01*
X328780Y495240D01*
X327805Y496280D01*
X326440Y496800D01*
X325075Y496540D01*
X323905Y495760D01*
X323125Y493940D01*
X322735Y492380D01*
Y490820D01*
X323125Y489260D01*
X324100Y487700D01*
X325270Y486660D01*
X326635Y486400D01*
X328000Y486920D01*
X329365Y488480D01*
G01X343950Y486400D02*
Y502000D01*
G01X358925Y493420D02*
X365165D01*
X364580Y495240D01*
X363605Y496280D01*
X362240Y496800D01*
X360875Y496540D01*
X359705Y495760D01*
X358925Y493940D01*
X358535Y492380D01*
Y490820D01*
X358925Y489260D01*
X359900Y487700D01*
X361070Y486660D01*
X362435Y486400D01*
X363800Y486920D01*
X365165Y488480D01*
G01X382870Y495500D02*
X381505Y496540D01*
X380335Y496800D01*
X378775Y496280D01*
X377605Y495240D01*
X376825Y493420D01*
X376630Y491600D01*
X376825Y489780D01*
X377605Y488220D01*
X378775Y486920D01*
X380335Y486400D01*
X381700Y486920D01*
X382870Y487960D01*
G01X397650Y502000D02*
Y486400D01*
G01X394920Y496800D02*
X400380D01*
G01X412820Y486400D02*
Y496800D01*
G01Y494720D02*
X413795Y495760D01*
X414770Y496540D01*
X416135Y496800D01*
X417110Y496540D01*
X418280Y495760D01*
G01X433450Y496800D02*
Y486400D01*
G01Y500960D02*
X433060Y501220D01*
Y501740D01*
X433450Y502000D01*
X433840Y501740D01*
Y501220D01*
X433450Y500960D01*
G01X454470Y495500D02*
X453105Y496540D01*
X451935Y496800D01*
X450375Y496280D01*
X449205Y495240D01*
X448425Y493420D01*
X448230Y491600D01*
X448425Y489780D01*
X449205Y488220D01*
X450375Y486920D01*
X451935Y486400D01*
X453300Y486920D01*
X454470Y487960D01*
G01X484225Y488220D02*
X485200Y487180D01*
X486565Y486400D01*
X487735D01*
X488905Y486920D01*
X489685Y487700D01*
X490075Y488740D01*
X489880Y490300D01*
X489100Y491080D01*
X485590Y492640D01*
X484810Y494460D01*
X485200Y495760D01*
X485980Y496540D01*
X487150Y496800D01*
X488320Y496540D01*
X489490Y495760D01*
G01X501735Y486400D02*
Y502000D01*
G01Y494460D02*
X502710Y495760D01*
X503685Y496540D01*
X505245Y496800D01*
X506415Y496540D01*
X507780Y495500D01*
X508365Y493940D01*
Y486400D01*
G01X522950D02*
X521780Y486660D01*
X520610Y487700D01*
X519830Y489520D01*
X519440Y491600D01*
X519830Y493680D01*
X520610Y495500D01*
X521780Y496540D01*
X522950Y496800D01*
X524120Y496540D01*
X525290Y495500D01*
X526070Y493680D01*
X526265Y491600D01*
X526070Y489520D01*
X525290Y487700D01*
X524120Y486660D01*
X522950Y486400D01*
G01X537535Y496800D02*
Y489520D01*
X538315Y487700D01*
X539485Y486660D01*
X540850Y486400D01*
X542215Y486660D01*
X543385Y487700D01*
X544165Y489520D01*
G01Y486400D02*
Y496800D01*
G01X558750Y486400D02*
Y502000D01*
G01X580160D02*
Y486400D01*
G01Y488740D02*
X579380Y487440D01*
X578210Y486660D01*
X576845Y486400D01*
X575285Y486920D01*
X574115Y488220D01*
X573335Y489780D01*
X573140Y491600D01*
X573335Y493420D01*
X574115Y494980D01*
X575285Y496280D01*
X576845Y496800D01*
X578210Y496540D01*
X579185Y496020D01*
X580160Y494980D01*
G01X608940Y486400D02*
Y502000D01*
G01Y494200D02*
X609915Y495760D01*
X611085Y496540D01*
X612255Y496800D01*
X614010Y496280D01*
X615180Y495240D01*
X615960Y493420D01*
Y491340D01*
X615570Y489260D01*
X614790Y487700D01*
X613425Y486660D01*
X612255Y486400D01*
X611085Y486660D01*
X609915Y487440D01*
X608940Y488740D01*
G01X627425Y493420D02*
X633665D01*
X633080Y495240D01*
X632105Y496280D01*
X630740Y496800D01*
X629375Y496540D01*
X628205Y495760D01*
X627425Y493940D01*
X627035Y492380D01*
Y490820D01*
X627425Y489260D01*
X628400Y487700D01*
X629570Y486660D01*
X630935Y486400D01*
X632300Y486920D01*
X633665Y488480D01*
G01X662055D02*
X663615Y487180D01*
X665370Y486400D01*
X666930D01*
X668490Y487180D01*
X669660Y488480D01*
X670245Y490300D01*
X669855Y492120D01*
X668880Y493680D01*
X667125Y494720D01*
X664785Y495240D01*
X663420Y496280D01*
X662835Y498100D01*
X663225Y499920D01*
X664200Y501220D01*
X665565Y502000D01*
X666930D01*
X668295Y501480D01*
X669465Y500180D01*
G01X684050Y502000D02*
Y486400D01*
G01X681320Y496800D02*
X686780D01*
G01X705460Y486400D02*
Y496800D01*
G01Y494980D02*
X704680Y496020D01*
X703510Y496540D01*
X702145Y496800D01*
X700780Y496280D01*
X699610Y495240D01*
X698830Y493680D01*
X698440Y491600D01*
X698830Y489520D01*
X699610Y487960D01*
X700780Y486920D01*
X702145Y486400D01*
X703510Y486660D01*
X704680Y487440D01*
X705460Y488480D01*
G01X716535Y486400D02*
Y496800D01*
G01Y494200D02*
X717315Y495500D01*
X718485Y496540D01*
X720045Y496800D01*
X721410Y496540D01*
X722580Y495500D01*
X723165Y493680D01*
Y486400D01*
G01X741260Y502000D02*
Y486400D01*
G01Y488740D02*
X740480Y487440D01*
X739310Y486660D01*
X737945Y486400D01*
X736385Y486920D01*
X735215Y488220D01*
X734435Y489780D01*
X734240Y491600D01*
X734435Y493420D01*
X735215Y494980D01*
X736385Y496280D01*
X737945Y496800D01*
X739310Y496540D01*
X740285Y496020D01*
X741260Y494980D01*
G01X759160Y486400D02*
Y496800D01*
G01Y494980D02*
X758380Y496020D01*
X757210Y496540D01*
X755845Y496800D01*
X754480Y496280D01*
X753310Y495240D01*
X752530Y493680D01*
X752140Y491600D01*
X752530Y489520D01*
X753310Y487960D01*
X754480Y486920D01*
X755845Y486400D01*
X757210Y486660D01*
X758380Y487440D01*
X759160Y488480D01*
G01X770820Y486400D02*
Y496800D01*
G01Y494720D02*
X771795Y495760D01*
X772770Y496540D01*
X774135Y496800D01*
X775110Y496540D01*
X776280Y495760D01*
G01X794960Y502000D02*
Y486400D01*
G01Y488740D02*
X794180Y487440D01*
X793010Y486660D01*
X791645Y486400D01*
X790085Y486920D01*
X788915Y488220D01*
X788135Y489780D01*
X787940Y491600D01*
X788135Y493420D01*
X788915Y494980D01*
X790085Y496280D01*
X791645Y496800D01*
X793010Y496540D01*
X793985Y496020D01*
X794960Y494980D01*
G01X823545Y486400D02*
Y502000D01*
X830955D01*
G01X828225Y494460D02*
X823545D01*
G01X842420Y486400D02*
Y496800D01*
G01Y494720D02*
X843395Y495760D01*
X844370Y496540D01*
X845735Y496800D01*
X846710Y496540D01*
X847880Y495760D01*
G01X865390Y486400D02*
Y502000D01*
X858175Y490820D01*
X867925D01*
G01X218250Y512200D02*
Y527800D01*
X215910Y524680D01*
G01Y512200D02*
X220590D01*
G01X236150Y511680D02*
X235760Y511940D01*
Y512460D01*
X236150Y512720D01*
X236540Y512460D01*
Y511940D01*
X236150Y511680D01*
G01X255025Y507000D02*
X256975Y509600D01*
X257950Y512200D01*
Y522600D01*
X256975Y525200D01*
X255025Y527800D01*
G01X289850Y512200D02*
X288290Y512460D01*
X286925Y513500D01*
X285755Y515060D01*
X284975Y516880D01*
X284585Y518960D01*
Y521040D01*
X284975Y523120D01*
X285755Y524940D01*
X286925Y526500D01*
X288290Y527540D01*
X289850Y527800D01*
X291410Y527540D01*
X292775Y526500D01*
X293945Y524940D01*
X294725Y523120D01*
X295115Y521040D01*
Y518960D01*
X294725Y516880D01*
X293945Y515060D01*
X292775Y513500D01*
X291410Y512460D01*
X289850Y512200D01*
G01X304240Y522600D02*
X307750Y512200D01*
X311260Y522600D01*
G01X322725Y519220D02*
X328965D01*
X328380Y521040D01*
X327405Y522080D01*
X326040Y522600D01*
X324675Y522340D01*
X323505Y521560D01*
X322725Y519740D01*
X322335Y518180D01*
Y516620D01*
X322725Y515060D01*
X323700Y513500D01*
X324870Y512460D01*
X326235Y512200D01*
X327600Y512720D01*
X328965Y514280D01*
G01X340820Y512200D02*
Y522600D01*
G01Y520520D02*
X341795Y521560D01*
X342770Y522340D01*
X344135Y522600D01*
X345110Y522340D01*
X346280Y521560D01*
G01X364960Y512200D02*
Y522600D01*
G01Y520780D02*
X364180Y521820D01*
X363010Y522340D01*
X361645Y522600D01*
X360280Y522080D01*
X359110Y521040D01*
X358330Y519480D01*
X357940Y517400D01*
X358330Y515320D01*
X359110Y513760D01*
X360280Y512720D01*
X361645Y512200D01*
X363010Y512460D01*
X364180Y513240D01*
X364960Y514280D01*
G01X379350Y512200D02*
Y527800D01*
G01X397250Y512200D02*
Y527800D01*
G01X434610Y520520D02*
X435390Y521300D01*
X435975Y522600D01*
X436365Y524420D01*
X435975Y525980D01*
X435195Y527020D01*
X433830Y527800D01*
X428565D01*
Y512200D01*
X435000D01*
X436365Y513240D01*
X437145Y514800D01*
X437535Y516620D01*
X437145Y518440D01*
X435975Y520000D01*
X434610Y520520D01*
X428565D01*
G01X450950Y512200D02*
X449780Y512460D01*
X448610Y513500D01*
X447830Y515320D01*
X447440Y517400D01*
X447830Y519480D01*
X448610Y521300D01*
X449780Y522340D01*
X450950Y522600D01*
X452120Y522340D01*
X453290Y521300D01*
X454070Y519480D01*
X454265Y517400D01*
X454070Y515320D01*
X453290Y513500D01*
X452120Y512460D01*
X450950Y512200D01*
G01X472360D02*
Y522600D01*
G01Y520780D02*
X471580Y521820D01*
X470410Y522340D01*
X469045Y522600D01*
X467680Y522080D01*
X466510Y521040D01*
X465730Y519480D01*
X465340Y517400D01*
X465730Y515320D01*
X466510Y513760D01*
X467680Y512720D01*
X469045Y512200D01*
X470410Y512460D01*
X471580Y513240D01*
X472360Y514280D01*
G01X484020Y512200D02*
Y522600D01*
G01Y520520D02*
X484995Y521560D01*
X485970Y522340D01*
X487335Y522600D01*
X488310Y522340D01*
X489480Y521560D01*
G01X508160Y527800D02*
Y512200D01*
G01Y514540D02*
X507380Y513240D01*
X506210Y512460D01*
X504845Y512200D01*
X503285Y512720D01*
X502115Y514020D01*
X501335Y515580D01*
X501140Y517400D01*
X501335Y519220D01*
X502115Y520780D01*
X503285Y522080D01*
X504845Y522600D01*
X506210Y522340D01*
X507185Y521820D01*
X508160Y520780D01*
G01X540450Y527800D02*
Y512200D01*
G01X535965Y527800D02*
X544935D01*
G01X555035Y512200D02*
Y527800D01*
G01Y520260D02*
X556010Y521560D01*
X556985Y522340D01*
X558545Y522600D01*
X559715Y522340D01*
X561080Y521300D01*
X561665Y519740D01*
Y512200D01*
G01X576250Y522600D02*
Y512200D01*
G01Y526760D02*
X575860Y527020D01*
Y527540D01*
X576250Y527800D01*
X576640Y527540D01*
Y527020D01*
X576250Y526760D01*
G01X597270Y521300D02*
X595905Y522340D01*
X594735Y522600D01*
X593175Y522080D01*
X592005Y521040D01*
X591225Y519220D01*
X591030Y517400D01*
X591225Y515580D01*
X592005Y514020D01*
X593175Y512720D01*
X594735Y512200D01*
X596100Y512720D01*
X597270Y513760D01*
G01X608735Y512200D02*
Y527800D01*
G01X614975Y522600D02*
X608735Y516620D01*
G01X611270Y518960D02*
X615365Y512200D01*
G01X627025Y519220D02*
X633265D01*
X632680Y521040D01*
X631705Y522080D01*
X630340Y522600D01*
X628975Y522340D01*
X627805Y521560D01*
X627025Y519740D01*
X626635Y518180D01*
Y516620D01*
X627025Y515060D01*
X628000Y513500D01*
X629170Y512460D01*
X630535Y512200D01*
X631900Y512720D01*
X633265Y514280D01*
G01X644535Y512200D02*
Y522600D01*
G01Y520000D02*
X645315Y521300D01*
X646485Y522340D01*
X648045Y522600D01*
X649410Y522340D01*
X650580Y521300D01*
X651165Y519480D01*
Y512200D01*
G01X662825Y514020D02*
X663800Y512980D01*
X665165Y512200D01*
X666335D01*
X667505Y512720D01*
X668285Y513500D01*
X668675Y514540D01*
X668480Y516100D01*
X667700Y516880D01*
X664190Y518440D01*
X663410Y520260D01*
X663800Y521560D01*
X664580Y522340D01*
X665750Y522600D01*
X666920Y522340D01*
X668090Y521560D01*
G01X680725Y514020D02*
X681700Y512980D01*
X683065Y512200D01*
X684235D01*
X685405Y512720D01*
X686185Y513500D01*
X686575Y514540D01*
X686380Y516100D01*
X685600Y516880D01*
X682090Y518440D01*
X681310Y520260D01*
X681700Y521560D01*
X682480Y522340D01*
X683650Y522600D01*
X684820Y522340D01*
X685990Y521560D01*
G01X716525Y514020D02*
X717500Y512980D01*
X718865Y512200D01*
X720035D01*
X721205Y512720D01*
X721985Y513500D01*
X722375Y514540D01*
X722180Y516100D01*
X721400Y516880D01*
X717890Y518440D01*
X717110Y520260D01*
X717500Y521560D01*
X718280Y522340D01*
X719450Y522600D01*
X720620Y522340D01*
X721790Y521560D01*
G01X734035Y512200D02*
Y527800D01*
G01Y520260D02*
X735010Y521560D01*
X735985Y522340D01*
X737545Y522600D01*
X738715Y522340D01*
X740080Y521300D01*
X740665Y519740D01*
Y512200D01*
G01X755250D02*
X754080Y512460D01*
X752910Y513500D01*
X752130Y515320D01*
X751740Y517400D01*
X752130Y519480D01*
X752910Y521300D01*
X754080Y522340D01*
X755250Y522600D01*
X756420Y522340D01*
X757590Y521300D01*
X758370Y519480D01*
X758565Y517400D01*
X758370Y515320D01*
X757590Y513500D01*
X756420Y512460D01*
X755250Y512200D01*
G01X769835Y522600D02*
Y515320D01*
X770615Y513500D01*
X771785Y512460D01*
X773150Y512200D01*
X774515Y512460D01*
X775685Y513500D01*
X776465Y515320D01*
G01Y512200D02*
Y522600D01*
G01X791050Y512200D02*
Y527800D01*
G01X812460D02*
Y512200D01*
G01Y514540D02*
X811680Y513240D01*
X810510Y512460D01*
X809145Y512200D01*
X807585Y512720D01*
X806415Y514020D01*
X805635Y515580D01*
X805440Y517400D01*
X805635Y519220D01*
X806415Y520780D01*
X807585Y522080D01*
X809145Y522600D01*
X810510Y522340D01*
X811485Y521820D01*
X812460Y520780D01*
G01X841240Y512200D02*
Y527800D01*
G01Y520000D02*
X842215Y521560D01*
X843385Y522340D01*
X844555Y522600D01*
X846310Y522080D01*
X847480Y521040D01*
X848260Y519220D01*
Y517140D01*
X847870Y515060D01*
X847090Y513500D01*
X845725Y512460D01*
X844555Y512200D01*
X843385Y512460D01*
X842215Y513240D01*
X841240Y514540D01*
G01X859725Y519220D02*
X865965D01*
X865380Y521040D01*
X864405Y522080D01*
X863040Y522600D01*
X861675Y522340D01*
X860505Y521560D01*
X859725Y519740D01*
X859335Y518180D01*
Y516620D01*
X859725Y515060D01*
X860700Y513500D01*
X861870Y512460D01*
X863235Y512200D01*
X864600Y512720D01*
X865965Y514280D01*
G01X898450Y511680D02*
X898060Y511940D01*
Y512460D01*
X898450Y512720D01*
X898840Y512460D01*
Y511940D01*
X898450Y511680D01*
G01X916350Y527800D02*
X914790Y527280D01*
X913620Y525980D01*
X912840Y524420D01*
X912255Y522340D01*
X912060Y520000D01*
X912255Y517660D01*
X912840Y515580D01*
X913620Y514020D01*
X914790Y512720D01*
X916350Y512200D01*
X917910Y512720D01*
X919080Y514020D01*
X919860Y515580D01*
X920445Y517660D01*
X920640Y520000D01*
X920445Y522340D01*
X919860Y524420D01*
X919080Y525980D01*
X917910Y527280D01*
X916350Y527800D01*
G01X930545Y518700D02*
X931910Y520520D01*
X933080Y521560D01*
X934640Y522080D01*
X936005Y521560D01*
X936980Y520520D01*
X937760Y518960D01*
X937955Y517140D01*
X937760Y515580D01*
X936980Y514020D01*
X935810Y512720D01*
X934445Y512200D01*
X932885Y512720D01*
X931520Y514280D01*
X930740Y516620D01*
X930545Y519220D01*
X930935Y522600D01*
X931520Y524420D01*
X932495Y526240D01*
X933860Y527540D01*
X935225Y527800D01*
X936590Y527280D01*
X937565Y525980D01*
G01X948445Y525200D02*
X949615Y526760D01*
X950980Y527540D01*
X952540Y527800D01*
X954490Y527280D01*
X955855Y525980D01*
X956245Y524420D01*
X956050Y522860D01*
X955270Y521560D01*
X951370Y518960D01*
X949615Y517140D01*
X948445Y514540D01*
X948055Y512200D01*
X956245D01*
G01X968295Y524420D02*
X969270Y527800D01*
G01X971805D02*
X970830Y524420D01*
G01X214545Y551200D02*
Y566800D01*
X221955D01*
G01X219225Y559260D02*
X214545D01*
G01X239660Y551200D02*
Y561600D01*
G01Y559780D02*
X238880Y560820D01*
X237710Y561340D01*
X236345Y561600D01*
X234980Y561080D01*
X233810Y560040D01*
X233030Y558480D01*
X232640Y556400D01*
X233030Y554320D01*
X233810Y552760D01*
X234980Y551720D01*
X236345Y551200D01*
X237710Y551460D01*
X238880Y552240D01*
X239660Y553280D01*
G01X250540Y551200D02*
Y566800D01*
G01Y559000D02*
X251515Y560560D01*
X252685Y561340D01*
X253855Y561600D01*
X255610Y561080D01*
X256780Y560040D01*
X257560Y558220D01*
Y556140D01*
X257170Y554060D01*
X256390Y552500D01*
X255025Y551460D01*
X253855Y551200D01*
X252685Y551460D01*
X251515Y552240D01*
X250540Y553540D01*
G01X285365Y551200D02*
Y566800D01*
X294335Y551200D01*
Y566800D01*
G01X307750Y551200D02*
X306580Y551460D01*
X305410Y552500D01*
X304630Y554320D01*
X304240Y556400D01*
X304630Y558480D01*
X305410Y560300D01*
X306580Y561340D01*
X307750Y561600D01*
X308920Y561340D01*
X310090Y560300D01*
X310870Y558480D01*
X311065Y556400D01*
X310870Y554320D01*
X310090Y552500D01*
X308920Y551460D01*
X307750Y551200D01*
G01X325650Y566800D02*
Y551200D01*
G01X322920Y561600D02*
X328380D01*
G01X340625Y558220D02*
X346865D01*
X346280Y560040D01*
X345305Y561080D01*
X343940Y561600D01*
X342575Y561340D01*
X341405Y560560D01*
X340625Y558740D01*
X340235Y557180D01*
Y555620D01*
X340625Y554060D01*
X341600Y552500D01*
X342770Y551460D01*
X344135Y551200D01*
X345500Y551720D01*
X346865Y553280D01*
G01X358525Y553020D02*
X359500Y551980D01*
X360865Y551200D01*
X362035D01*
X363205Y551720D01*
X363985Y552500D01*
X364375Y553540D01*
X364180Y555100D01*
X363400Y555880D01*
X359890Y557440D01*
X359110Y559260D01*
X359500Y560560D01*
X360280Y561340D01*
X361450Y561600D01*
X362620Y561340D01*
X363790Y560560D01*
G01X379350Y550680D02*
X378960Y550940D01*
Y551460D01*
X379350Y551720D01*
X379740Y551460D01*
Y550940D01*
X379350Y550680D01*
G01Y557700D02*
X378960Y557960D01*
Y558480D01*
X379350Y558740D01*
X379740Y558480D01*
Y557960D01*
X379350Y557700D01*
G01X241950Y260600D02*
Y245000D01*
X249750D01*
G01X267260D02*
Y255400D01*
G01Y253580D02*
X266480Y254620D01*
X265310Y255140D01*
X263945Y255400D01*
X262580Y254880D01*
X261410Y253840D01*
X260630Y252280D01*
X260240Y250200D01*
X260630Y248120D01*
X261410Y246560D01*
X262580Y245520D01*
X263945Y245000D01*
X265310Y245260D01*
X266480Y246040D01*
X267260Y247080D01*
G01X277555Y240320D02*
X278725Y239800D01*
X280285Y240320D01*
X281260Y241360D01*
X282040Y242660D01*
X283210Y246820D01*
X285745Y255400D01*
G01X279505D02*
X283210Y246820D01*
G01X296625Y252020D02*
X302865D01*
X302280Y253840D01*
X301305Y254880D01*
X299940Y255400D01*
X298575Y255140D01*
X297405Y254360D01*
X296625Y252540D01*
X296235Y250980D01*
Y249420D01*
X296625Y247860D01*
X297600Y246300D01*
X298770Y245260D01*
X300135Y245000D01*
X301500Y245520D01*
X302865Y247080D01*
G01X314720Y245000D02*
Y255400D01*
G01Y253320D02*
X315695Y254360D01*
X316670Y255140D01*
X318035Y255400D01*
X319010Y255140D01*
X320180Y254360D01*
G01X355590Y245000D02*
Y260600D01*
X348375Y249420D01*
X358125D01*
G01X241950Y295600D02*
Y280000D01*
X249750D01*
G01X267260D02*
Y290400D01*
G01Y288580D02*
X266480Y289620D01*
X265310Y290140D01*
X263945Y290400D01*
X262580Y289880D01*
X261410Y288840D01*
X260630Y287280D01*
X260240Y285200D01*
X260630Y283120D01*
X261410Y281560D01*
X262580Y280520D01*
X263945Y280000D01*
X265310Y280260D01*
X266480Y281040D01*
X267260Y282080D01*
G01X277555Y275320D02*
X278725Y274800D01*
X280285Y275320D01*
X281260Y276360D01*
X282040Y277660D01*
X283210Y281820D01*
X285745Y290400D01*
G01X279505D02*
X283210Y281820D01*
G01X296625Y287020D02*
X302865D01*
X302280Y288840D01*
X301305Y289880D01*
X299940Y290400D01*
X298575Y290140D01*
X297405Y289360D01*
X296625Y287540D01*
X296235Y285980D01*
Y284420D01*
X296625Y282860D01*
X297600Y281300D01*
X298770Y280260D01*
X300135Y280000D01*
X301500Y280520D01*
X302865Y282080D01*
G01X314720Y280000D02*
Y290400D01*
G01Y288320D02*
X315695Y289360D01*
X316670Y290140D01*
X318035Y290400D01*
X319010Y290140D01*
X320180Y289360D01*
G01X348960Y283120D02*
X350130Y281300D01*
X351690Y280260D01*
X353445Y280000D01*
X355005Y280260D01*
X356565Y281560D01*
X357540Y283120D01*
X357735Y284680D01*
X357345Y286500D01*
X355980Y287800D01*
X354615Y288320D01*
X352860D01*
G01X354615D02*
X355785Y289100D01*
X356760Y290400D01*
X357150Y291960D01*
X356760Y293520D01*
X355785Y294820D01*
X354030Y295600D01*
X352275Y295340D01*
X350520Y294300D01*
G01X241950Y335600D02*
Y320000D01*
X249750D01*
G01X267260D02*
Y330400D01*
G01Y328580D02*
X266480Y329620D01*
X265310Y330140D01*
X263945Y330400D01*
X262580Y329880D01*
X261410Y328840D01*
X260630Y327280D01*
X260240Y325200D01*
X260630Y323120D01*
X261410Y321560D01*
X262580Y320520D01*
X263945Y320000D01*
X265310Y320260D01*
X266480Y321040D01*
X267260Y322080D01*
G01X277555Y315320D02*
X278725Y314800D01*
X280285Y315320D01*
X281260Y316360D01*
X282040Y317660D01*
X283210Y321820D01*
X285745Y330400D01*
G01X279505D02*
X283210Y321820D01*
G01X296625Y327020D02*
X302865D01*
X302280Y328840D01*
X301305Y329880D01*
X299940Y330400D01*
X298575Y330140D01*
X297405Y329360D01*
X296625Y327540D01*
X296235Y325980D01*
Y324420D01*
X296625Y322860D01*
X297600Y321300D01*
X298770Y320260D01*
X300135Y320000D01*
X301500Y320520D01*
X302865Y322080D01*
G01X314720Y320000D02*
Y330400D01*
G01Y328320D02*
X315695Y329360D01*
X316670Y330140D01*
X318035Y330400D01*
X319010Y330140D01*
X320180Y329360D01*
G01X349545Y333000D02*
X350715Y334560D01*
X352080Y335340D01*
X353640Y335600D01*
X355590Y335080D01*
X356955Y333780D01*
X357345Y332220D01*
X357150Y330660D01*
X356370Y329360D01*
X352470Y326760D01*
X350715Y324940D01*
X349545Y322340D01*
X349155Y320000D01*
X357345D01*
G01X241950Y370600D02*
Y355000D01*
X249750D01*
G01X267260D02*
Y365400D01*
G01Y363580D02*
X266480Y364620D01*
X265310Y365140D01*
X263945Y365400D01*
X262580Y364880D01*
X261410Y363840D01*
X260630Y362280D01*
X260240Y360200D01*
X260630Y358120D01*
X261410Y356560D01*
X262580Y355520D01*
X263945Y355000D01*
X265310Y355260D01*
X266480Y356040D01*
X267260Y357080D01*
G01X277555Y350320D02*
X278725Y349800D01*
X280285Y350320D01*
X281260Y351360D01*
X282040Y352660D01*
X283210Y356820D01*
X285745Y365400D01*
G01X279505D02*
X283210Y356820D01*
G01X296625Y362020D02*
X302865D01*
X302280Y363840D01*
X301305Y364880D01*
X299940Y365400D01*
X298575Y365140D01*
X297405Y364360D01*
X296625Y362540D01*
X296235Y360980D01*
Y359420D01*
X296625Y357860D01*
X297600Y356300D01*
X298770Y355260D01*
X300135Y355000D01*
X301500Y355520D01*
X302865Y357080D01*
G01X314720Y355000D02*
Y365400D01*
G01Y363320D02*
X315695Y364360D01*
X316670Y365140D01*
X318035Y365400D01*
X319010Y365140D01*
X320180Y364360D01*
G01X353250Y355000D02*
Y370600D01*
X350910Y367480D01*
G01Y355000D02*
X355590D01*
G01X287390Y181250D02*
Y193750D01*
X290490D01*
X291730Y193125D01*
X292660Y192292D01*
X293435Y191042D01*
X294055Y189583D01*
X294210Y187500D01*
X294055Y185417D01*
X293435Y183958D01*
X292660Y182708D01*
X291730Y181875D01*
X290490Y181250D01*
X287390D01*
G01X300100D02*
Y193750D01*
X303975D01*
X305215Y193125D01*
X305990Y192292D01*
X306300Y190625D01*
X305990Y188958D01*
X305060Y187917D01*
X303975Y187292D01*
X300100D01*
G01X303975D02*
X306300Y181250D01*
G01X313740Y193750D02*
X317460D01*
G01X315600D02*
Y181250D01*
G01X313740D02*
X317460D01*
G01X324900Y193750D02*
Y181250D01*
X331100D01*
G01X337300Y193750D02*
Y181250D01*
X343500D01*
G01X368610Y192708D02*
X367680Y193333D01*
X366595Y193750D01*
X365355D01*
X363960Y193125D01*
X362875Y192083D01*
X362100Y190833D01*
X361480Y188750D01*
X361325Y186875D01*
X361635Y185000D01*
X362100Y183750D01*
X363030Y182500D01*
X364115Y181667D01*
X365200Y181250D01*
X366285D01*
X367370Y181667D01*
X368300Y182291D01*
X369075Y183125D01*
G01X374345Y181250D02*
Y193750D01*
G01X380855D02*
Y181250D01*
G01Y187500D02*
X374345D01*
G01X386125Y181250D02*
X390000Y193750D01*
X393875Y181250D01*
G01X392480Y185625D02*
X387520D01*
G01X399300Y181250D02*
Y193750D01*
X403175D01*
X404415Y193125D01*
X405190Y192292D01*
X405500Y190625D01*
X405190Y188958D01*
X404260Y187917D01*
X403175Y187292D01*
X399300D01*
G01X403175D02*
X405500Y181250D01*
G01X414800Y193750D02*
Y181250D01*
G01X411235Y193750D02*
X418365D01*
G01X427200Y180833D02*
X426890Y181042D01*
Y181458D01*
X427200Y181667D01*
X427510Y181458D01*
Y181042D01*
X427200Y180833D01*
G01Y186458D02*
X426890Y186667D01*
Y187083D01*
X427200Y187292D01*
X427510Y187083D01*
Y186667D01*
X427200Y186458D01*
G01X452000Y193750D02*
Y181250D01*
G01X448435Y193750D02*
X455565D01*
G01X464400Y181250D02*
X463160Y181458D01*
X462075Y182291D01*
X461145Y183542D01*
X460525Y185000D01*
X460215Y186667D01*
Y188333D01*
X460525Y190000D01*
X461145Y191458D01*
X462075Y192708D01*
X463160Y193542D01*
X464400Y193750D01*
X465640Y193542D01*
X466725Y192708D01*
X467655Y191458D01*
X468275Y190000D01*
X468585Y188333D01*
Y186667D01*
X468275Y185000D01*
X467655Y183542D01*
X466725Y182291D01*
X465640Y181458D01*
X464400Y181250D01*
G01X473700D02*
Y193750D01*
X477420D01*
X478660Y193125D01*
X479590Y191667D01*
X479900Y190000D01*
X479590Y188333D01*
X478815Y187083D01*
X477420Y186458D01*
X473700D01*
G01X501600Y193750D02*
Y181250D01*
G01X499430Y189583D02*
X503770D01*
G01X514000Y181250D02*
X513070Y181458D01*
X512140Y182291D01*
X511520Y183750D01*
X511210Y185417D01*
X511520Y187083D01*
X512140Y188542D01*
X513070Y189375D01*
X514000Y189583D01*
X514930Y189375D01*
X515860Y188542D01*
X516480Y187083D01*
X516635Y185417D01*
X516480Y183750D01*
X515860Y182291D01*
X514930Y181458D01*
X514000Y181250D01*
G01X540040Y187917D02*
X540660Y188542D01*
X541125Y189583D01*
X541435Y191042D01*
X541125Y192292D01*
X540505Y193125D01*
X539420Y193750D01*
X535235D01*
Y181250D01*
X540350D01*
X541435Y182083D01*
X542055Y183333D01*
X542365Y184792D01*
X542055Y186250D01*
X541125Y187500D01*
X540040Y187917D01*
X535235D01*
G01X551200Y181250D02*
X549960Y181458D01*
X548875Y182291D01*
X547945Y183542D01*
X547325Y185000D01*
X547015Y186667D01*
Y188333D01*
X547325Y190000D01*
X547945Y191458D01*
X548875Y192708D01*
X549960Y193542D01*
X551200Y193750D01*
X552440Y193542D01*
X553525Y192708D01*
X554455Y191458D01*
X555075Y190000D01*
X555385Y188333D01*
Y186667D01*
X555075Y185000D01*
X554455Y183542D01*
X553525Y182291D01*
X552440Y181458D01*
X551200Y181250D01*
G01X563600Y193750D02*
Y181250D01*
G01X560035Y193750D02*
X567165D01*
G01X576000D02*
Y181250D01*
G01X572435Y193750D02*
X579565D01*
G01X588400Y181250D02*
X587160Y181458D01*
X586075Y182291D01*
X585145Y183542D01*
X584525Y185000D01*
X584215Y186667D01*
Y188333D01*
X584525Y190000D01*
X585145Y191458D01*
X586075Y192708D01*
X587160Y193542D01*
X588400Y193750D01*
X589640Y193542D01*
X590725Y192708D01*
X591655Y191458D01*
X592275Y190000D01*
X592585Y188333D01*
Y186667D01*
X592275Y185000D01*
X591655Y183542D01*
X590725Y182291D01*
X589640Y181458D01*
X588400Y181250D01*
G01X596770D02*
Y193750D01*
X600800Y183333D01*
X604830Y193750D01*
Y181250D01*
G01X293900Y146900D02*
Y6400D01*
G01X317925Y156250D02*
X321800Y168750D01*
X325675Y156250D01*
G01X324280Y160625D02*
X319320D01*
G01X331100Y168750D02*
Y156250D01*
X337300D01*
G01X343500Y168750D02*
Y156250D01*
X349700D01*
G01X367990Y168750D02*
Y159792D01*
X368610Y157916D01*
X369850Y156667D01*
X371400Y156250D01*
X372950Y156667D01*
X374190Y157916D01*
X374810Y159792D01*
Y168750D01*
G01X380235Y156250D02*
Y168750D01*
X387365Y156250D01*
Y168750D01*
G01X394340D02*
X398060D01*
G01X396200D02*
Y156250D01*
G01X394340D02*
X398060D01*
G01X408600Y168750D02*
Y156250D01*
G01X405035Y168750D02*
X412165D01*
G01X417745Y157916D02*
X418985Y156875D01*
X420380Y156250D01*
X421620D01*
X422860Y156875D01*
X423790Y157916D01*
X424255Y159375D01*
X423945Y160833D01*
X423170Y162083D01*
X421775Y162917D01*
X419915Y163333D01*
X418830Y164167D01*
X418365Y165625D01*
X418675Y167083D01*
X419450Y168125D01*
X420535Y168750D01*
X421620D01*
X422705Y168333D01*
X423635Y167292D01*
G01X441925Y156250D02*
X445800Y168750D01*
X449675Y156250D01*
G01X448280Y160625D02*
X443320D01*
G01X455100Y156250D02*
Y168750D01*
X458975D01*
X460215Y168125D01*
X460990Y167292D01*
X461300Y165625D01*
X460990Y163958D01*
X460060Y162917D01*
X458975Y162292D01*
X455100D01*
G01X458975D02*
X461300Y156250D01*
G01X473700D02*
X467500D01*
Y168750D01*
X473700D01*
G01X471220Y162708D02*
X467500D01*
G01X493540Y168750D02*
X497260D01*
G01X495400D02*
Y156250D01*
G01X493540D02*
X497260D01*
G01X504235D02*
Y168750D01*
X511365Y156250D01*
Y168750D01*
G01X528570Y156250D02*
Y168750D01*
X532600Y158333D01*
X536630Y168750D01*
Y156250D01*
G01X543140Y168750D02*
X546860D01*
G01X545000D02*
Y156250D01*
G01X543140D02*
X546860D01*
G01X554300Y168750D02*
Y156250D01*
X560500D01*
G01X566545Y157916D02*
X567785Y156875D01*
X569180Y156250D01*
X570420D01*
X571660Y156875D01*
X572590Y157916D01*
X573055Y159375D01*
X572745Y160833D01*
X571970Y162083D01*
X570575Y162917D01*
X568715Y163333D01*
X567630Y164167D01*
X567165Y165625D01*
X567475Y167083D01*
X568250Y168125D01*
X569335Y168750D01*
X570420D01*
X571505Y168333D01*
X572435Y167292D01*
G01X360240Y16075D02*
X361170Y15033D01*
X362255Y14408D01*
X363650Y14200D01*
X365045Y14617D01*
X366130Y15450D01*
X366905Y16908D01*
X367060Y18575D01*
X366750Y20242D01*
X365975Y21283D01*
X364890Y22117D01*
X363805Y22325D01*
X362720Y22117D01*
X361325Y21283D01*
X361790Y26700D01*
X365975D01*
G01X376050Y14200D02*
Y26700D01*
X374190Y24200D01*
G01Y14200D02*
X377910D01*
G01X388450Y13783D02*
X388140Y13992D01*
Y14408D01*
X388450Y14617D01*
X388760Y14408D01*
Y13992D01*
X388450Y13783D01*
G01X400850Y14200D02*
Y26700D01*
X398990Y24200D01*
G01Y14200D02*
X402710D01*
G01X413250D02*
X414335Y14408D01*
X415575Y15033D01*
X416350Y16075D01*
X416660Y17533D01*
X416350Y18991D01*
X415420Y20242D01*
X414025Y20867D01*
X412475D01*
X411545Y21283D01*
X410770Y22325D01*
X410460Y23783D01*
X410925Y25242D01*
X412010Y26283D01*
X413250Y26700D01*
X414490Y26283D01*
X415575Y25242D01*
X416040Y23783D01*
X415730Y22325D01*
X414955Y21283D01*
X414025Y20867D01*
X412475D01*
X411080Y20242D01*
X410150Y18991D01*
X409840Y17533D01*
X410150Y16075D01*
X410925Y15033D01*
X412165Y14408D01*
X413250Y14200D01*
G01X371710Y42300D02*
Y54800D01*
X365975Y45842D01*
X373725D01*
G01X378840Y44800D02*
X379770Y43341D01*
X381010Y42508D01*
X382405Y42300D01*
X383645Y42508D01*
X384885Y43550D01*
X385660Y44800D01*
X385815Y46050D01*
X385505Y47508D01*
X384420Y48550D01*
X383335Y48967D01*
X381940D01*
G01X383335D02*
X384265Y49592D01*
X385040Y50633D01*
X385350Y51883D01*
X385040Y53133D01*
X384265Y54175D01*
X382870Y54800D01*
X381475Y54592D01*
X380080Y53758D01*
G01X394650Y41883D02*
X394340Y42092D01*
Y42508D01*
X394650Y42717D01*
X394960Y42508D01*
Y42092D01*
X394650Y41883D01*
G01X407050Y54800D02*
X405810Y54383D01*
X404880Y53342D01*
X404260Y52092D01*
X403795Y50425D01*
X403640Y48550D01*
X403795Y46675D01*
X404260Y45008D01*
X404880Y43758D01*
X405810Y42717D01*
X407050Y42300D01*
X408290Y42717D01*
X409220Y43758D01*
X409840Y45008D01*
X410305Y46675D01*
X410460Y48550D01*
X410305Y50425D01*
X409840Y52092D01*
X409220Y53342D01*
X408290Y54383D01*
X407050Y54800D01*
G01X361015Y71858D02*
X362100Y70817D01*
X363340Y70400D01*
X364580Y70817D01*
X365665Y72066D01*
X366440Y73942D01*
X366750Y75817D01*
Y78108D01*
X366440Y79983D01*
X365665Y81650D01*
X364735Y82483D01*
X363650Y82900D01*
X362410Y82483D01*
X361480Y81650D01*
X360860Y80400D01*
X360550Y78733D01*
X360860Y77275D01*
X361635Y75817D01*
X362565Y74983D01*
X363650Y74775D01*
X364890Y75191D01*
X365820Y76233D01*
X366750Y78108D01*
G01X376050Y70400D02*
X377135Y70608D01*
X378375Y71233D01*
X379150Y72275D01*
X379460Y73733D01*
X379150Y75191D01*
X378220Y76442D01*
X376825Y77067D01*
X375275D01*
X374345Y77483D01*
X373570Y78525D01*
X373260Y79983D01*
X373725Y81442D01*
X374810Y82483D01*
X376050Y82900D01*
X377290Y82483D01*
X378375Y81442D01*
X378840Y79983D01*
X378530Y78525D01*
X377755Y77483D01*
X376825Y77067D01*
X375275D01*
X373880Y76442D01*
X372950Y75191D01*
X372640Y73733D01*
X372950Y72275D01*
X373725Y71233D01*
X374965Y70608D01*
X376050Y70400D01*
G01X388450Y69983D02*
X388140Y70192D01*
Y70608D01*
X388450Y70817D01*
X388760Y70608D01*
Y70192D01*
X388450Y69983D01*
G01X402710Y70400D02*
Y82900D01*
X396975Y73942D01*
X404725D01*
G01X409840Y72900D02*
X410770Y71441D01*
X412010Y70608D01*
X413405Y70400D01*
X414645Y70608D01*
X415885Y71650D01*
X416660Y72900D01*
X416815Y74150D01*
X416505Y75608D01*
X415420Y76650D01*
X414335Y77067D01*
X412940D01*
G01X414335D02*
X415265Y77692D01*
X416040Y78733D01*
X416350Y79983D01*
X416040Y81233D01*
X415265Y82275D01*
X413870Y82900D01*
X412475Y82692D01*
X411080Y81858D01*
G01X369850Y98500D02*
Y111000D01*
X367990Y108500D01*
G01Y98500D02*
X371710D01*
G01X378840Y101000D02*
X379770Y99541D01*
X381010Y98708D01*
X382405Y98500D01*
X383645Y98708D01*
X384885Y99750D01*
X385660Y101000D01*
X385815Y102250D01*
X385505Y103708D01*
X384420Y104750D01*
X383335Y105167D01*
X381940D01*
G01X383335D02*
X384265Y105792D01*
X385040Y106833D01*
X385350Y108083D01*
X385040Y109333D01*
X384265Y110375D01*
X382870Y111000D01*
X381475Y110792D01*
X380080Y109958D01*
G01X394650Y98083D02*
X394340Y98292D01*
Y98708D01*
X394650Y98917D01*
X394960Y98708D01*
Y98292D01*
X394650Y98083D01*
G01X407050Y111000D02*
X405810Y110583D01*
X404880Y109542D01*
X404260Y108292D01*
X403795Y106625D01*
X403640Y104750D01*
X403795Y102875D01*
X404260Y101208D01*
X404880Y99958D01*
X405810Y98917D01*
X407050Y98500D01*
X408290Y98917D01*
X409220Y99958D01*
X409840Y101208D01*
X410305Y102875D01*
X410460Y104750D01*
X410305Y106625D01*
X409840Y108292D01*
X409220Y109542D01*
X408290Y110583D01*
X407050Y111000D01*
G01X366595Y129816D02*
X367835Y128775D01*
X369230Y128150D01*
X370470D01*
X371710Y128775D01*
X372640Y129816D01*
X373105Y131275D01*
X372795Y132733D01*
X372020Y133983D01*
X370625Y134817D01*
X368765Y135233D01*
X367680Y136067D01*
X367215Y137525D01*
X367525Y138983D01*
X368300Y140025D01*
X369385Y140650D01*
X370470D01*
X371555Y140233D01*
X372485Y139192D01*
G01X380390Y140650D02*
X384110D01*
G01X382250D02*
Y128150D01*
G01X380390D02*
X384110D01*
G01X391705Y140650D02*
X397595D01*
X391705Y128150D01*
X397595D01*
G01X410150D02*
X403950D01*
Y140650D01*
X410150D01*
G01X407670Y134608D02*
X403950D01*
G01X380000Y265000D02*
Y275000D01*
X500000D01*
Y265000D01*
X380000D01*
G01Y300000D02*
Y315000D01*
X500000D01*
Y300000D01*
X380000D01*
G01Y340000D02*
Y350000D01*
X500000D01*
Y340000D01*
X380000D01*
G01X483000Y146900D02*
Y6400D01*
G01X487185Y14200D02*
Y26700D01*
X494315Y14200D01*
Y26700D01*
G01X503150Y14200D02*
X501910Y14408D01*
X500825Y15241D01*
X499895Y16492D01*
X499275Y17950D01*
X498965Y19617D01*
Y21283D01*
X499275Y22950D01*
X499895Y24408D01*
X500825Y25658D01*
X501910Y26492D01*
X503150Y26700D01*
X504390Y26492D01*
X505475Y25658D01*
X506405Y24408D01*
X507025Y22950D01*
X507335Y21283D01*
Y19617D01*
X507025Y17950D01*
X506405Y16492D01*
X505475Y15241D01*
X504390Y14408D01*
X503150Y14200D01*
G01X511985D02*
Y26700D01*
X519115Y14200D01*
Y26700D01*
G01X525935Y18367D02*
X529965D01*
G01X537250Y14200D02*
Y26700D01*
X540970D01*
X542210Y26075D01*
X543140Y24617D01*
X543450Y22950D01*
X543140Y21283D01*
X542365Y20033D01*
X540970Y19408D01*
X537250D01*
G01X549650Y26700D02*
Y14200D01*
X555850D01*
G01X561275D02*
X565150Y26700D01*
X569025Y14200D01*
G01X567630Y18575D02*
X562670D01*
G01X577550Y26700D02*
Y14200D01*
G01X573985Y26700D02*
X581115D01*
G01X593050Y14200D02*
X586850D01*
Y26700D01*
X593050D01*
G01X590570Y20658D02*
X586850D01*
G01X598940Y14200D02*
Y26700D01*
X602040D01*
X603280Y26075D01*
X604210Y25242D01*
X604985Y23992D01*
X605605Y22533D01*
X605760Y20450D01*
X605605Y18367D01*
X604985Y16908D01*
X604210Y15658D01*
X603280Y14825D01*
X602040Y14200D01*
X598940D01*
G01X487185Y42300D02*
Y54800D01*
X494315Y42300D01*
Y54800D01*
G01X503150Y42300D02*
X501910Y42508D01*
X500825Y43341D01*
X499895Y44592D01*
X499275Y46050D01*
X498965Y47717D01*
Y49383D01*
X499275Y51050D01*
X499895Y52508D01*
X500825Y53758D01*
X501910Y54592D01*
X503150Y54800D01*
X504390Y54592D01*
X505475Y53758D01*
X506405Y52508D01*
X507025Y51050D01*
X507335Y49383D01*
Y47717D01*
X507025Y46050D01*
X506405Y44592D01*
X505475Y43341D01*
X504390Y42508D01*
X503150Y42300D01*
G01X511985D02*
Y54800D01*
X519115Y42300D01*
Y54800D01*
G01X525935Y46467D02*
X529965D01*
G01X537250Y42300D02*
Y54800D01*
X540970D01*
X542210Y54175D01*
X543140Y52717D01*
X543450Y51050D01*
X543140Y49383D01*
X542365Y48133D01*
X540970Y47508D01*
X537250D01*
G01X549650Y54800D02*
Y42300D01*
X555850D01*
G01X561275D02*
X565150Y54800D01*
X569025Y42300D01*
G01X567630Y46675D02*
X562670D01*
G01X577550Y54800D02*
Y42300D01*
G01X573985Y54800D02*
X581115D01*
G01X593050Y42300D02*
X586850D01*
Y54800D01*
X593050D01*
G01X590570Y48758D02*
X586850D01*
G01X598940Y42300D02*
Y54800D01*
X602040D01*
X603280Y54175D01*
X604210Y53342D01*
X604985Y52092D01*
X605605Y50633D01*
X605760Y48550D01*
X605605Y46467D01*
X604985Y45008D01*
X604210Y43758D01*
X603280Y42925D01*
X602040Y42300D01*
X598940D01*
G01X512450Y70400D02*
Y82900D01*
X516170D01*
X517410Y82275D01*
X518340Y80817D01*
X518650Y79150D01*
X518340Y77483D01*
X517565Y76233D01*
X516170Y75608D01*
X512450D01*
G01X524850Y82900D02*
Y70400D01*
X531050D01*
G01X536475D02*
X540350Y82900D01*
X544225Y70400D01*
G01X542830Y74775D02*
X537870D01*
G01X552750Y82900D02*
Y70400D01*
G01X549185Y82900D02*
X556315D01*
G01X568250Y70400D02*
X562050D01*
Y82900D01*
X568250D01*
G01X565770Y76858D02*
X562050D01*
G01X574140Y70400D02*
Y82900D01*
X577240D01*
X578480Y82275D01*
X579410Y81442D01*
X580185Y80192D01*
X580805Y78733D01*
X580960Y76650D01*
X580805Y74567D01*
X580185Y73108D01*
X579410Y71858D01*
X578480Y71025D01*
X577240Y70400D01*
X574140D01*
G01X512450Y98500D02*
Y111000D01*
X516170D01*
X517410Y110375D01*
X518340Y108917D01*
X518650Y107250D01*
X518340Y105583D01*
X517565Y104333D01*
X516170Y103708D01*
X512450D01*
G01X524850Y111000D02*
Y98500D01*
X531050D01*
G01X536475D02*
X540350Y111000D01*
X544225Y98500D01*
G01X542830Y102875D02*
X537870D01*
G01X552750Y111000D02*
Y98500D01*
G01X549185Y111000D02*
X556315D01*
G01X568250Y98500D02*
X562050D01*
Y111000D01*
X568250D01*
G01X565770Y104958D02*
X562050D01*
G01X574140Y98500D02*
Y111000D01*
X577240D01*
X578480Y110375D01*
X579410Y109542D01*
X580185Y108292D01*
X580805Y106833D01*
X580960Y104750D01*
X580805Y102667D01*
X580185Y101208D01*
X579410Y99958D01*
X578480Y99125D01*
X577240Y98500D01*
X574140D01*
G01X512450Y128150D02*
Y140650D01*
X516170D01*
X517410Y140025D01*
X518340Y138567D01*
X518650Y136900D01*
X518340Y135233D01*
X517565Y133983D01*
X516170Y133358D01*
X512450D01*
G01X524850Y140650D02*
Y128150D01*
X531050D01*
G01X536475D02*
X540350Y140650D01*
X544225Y128150D01*
G01X542830Y132525D02*
X537870D01*
G01X552750Y140650D02*
Y128150D01*
G01X549185Y140650D02*
X556315D01*
G01X568250Y128150D02*
X562050D01*
Y140650D01*
X568250D01*
G01X565770Y134608D02*
X562050D01*
G01X574140Y128150D02*
Y140650D01*
X577240D01*
X578480Y140025D01*
X579410Y139192D01*
X580185Y137942D01*
X580805Y136483D01*
X580960Y134400D01*
X580805Y132317D01*
X580185Y130858D01*
X579410Y129608D01*
X578480Y128775D01*
X577240Y128150D01*
X574140D01*
G01X532410Y253320D02*
X533190Y254100D01*
X533775Y255400D01*
X534165Y257220D01*
X533775Y258780D01*
X532995Y259820D01*
X531630Y260600D01*
X526365D01*
Y245000D01*
X532800D01*
X534165Y246040D01*
X534945Y247600D01*
X535335Y249420D01*
X534945Y251240D01*
X533775Y252800D01*
X532410Y253320D01*
X526365D01*
G01X548750Y245000D02*
X547580Y245260D01*
X546410Y246300D01*
X545630Y248120D01*
X545240Y250200D01*
X545630Y252280D01*
X546410Y254100D01*
X547580Y255140D01*
X548750Y255400D01*
X549920Y255140D01*
X551090Y254100D01*
X551870Y252280D01*
X552065Y250200D01*
X551870Y248120D01*
X551090Y246300D01*
X549920Y245260D01*
X548750Y245000D01*
G01X566650Y260600D02*
Y245000D01*
G01X563920Y255400D02*
X569380D01*
G01X584550Y260600D02*
Y245000D01*
G01X581820Y255400D02*
X587280D01*
G01X602450Y245000D02*
X601280Y245260D01*
X600110Y246300D01*
X599330Y248120D01*
X598940Y250200D01*
X599330Y252280D01*
X600110Y254100D01*
X601280Y255140D01*
X602450Y255400D01*
X603620Y255140D01*
X604790Y254100D01*
X605570Y252280D01*
X605765Y250200D01*
X605570Y248120D01*
X604790Y246300D01*
X603620Y245260D01*
X602450Y245000D01*
G01X614500D02*
Y255400D01*
G01Y252540D02*
X615085Y253840D01*
X616060Y254880D01*
X617425Y255400D01*
X618790Y254880D01*
X619765Y253840D01*
X620350Y252540D01*
Y245000D01*
G01Y252540D02*
X620935Y253840D01*
X621910Y254880D01*
X623275Y255400D01*
X624640Y254880D01*
X625615Y253840D01*
X626200Y252280D01*
Y245000D01*
G01X526950Y285000D02*
Y300600D01*
X531630D01*
X533190Y299820D01*
X534360Y298000D01*
X534750Y295920D01*
X534360Y293840D01*
X533385Y292280D01*
X531630Y291500D01*
X526950D01*
G01X542900Y300600D02*
X545630Y285000D01*
X548750Y300600D01*
X551870Y285000D01*
X554600Y300600D01*
G01X562750Y285000D02*
Y300600D01*
X567625D01*
X569185Y299820D01*
X570160Y298780D01*
X570550Y296700D01*
X570160Y294620D01*
X568990Y293320D01*
X567625Y292540D01*
X562750D01*
G01X567625D02*
X570550Y285000D01*
G01X532020Y332800D02*
X535920D01*
Y328120D01*
X534750Y326560D01*
X533385Y325520D01*
X531435Y325000D01*
X529485Y325520D01*
X528120Y326560D01*
X526950Y328120D01*
X526170Y329940D01*
X525780Y332020D01*
Y333840D01*
X526170Y335400D01*
X526950Y337220D01*
X528120Y338780D01*
X529290Y339820D01*
X530850Y340600D01*
X532215D01*
X533775Y340080D01*
X534945Y339040D01*
G01X544265Y325000D02*
Y340600D01*
X553235Y325000D01*
Y340600D01*
G01X562360Y325000D02*
Y340600D01*
X566260D01*
X567820Y339820D01*
X568990Y338780D01*
X569965Y337220D01*
X570745Y335400D01*
X570940Y332800D01*
X570745Y330200D01*
X569965Y328380D01*
X568990Y326820D01*
X567820Y325780D01*
X566260Y325000D01*
X562360D01*
G01X525850Y375600D02*
Y360000D01*
G01X521365Y375600D02*
X530335D01*
G01X543750Y360000D02*
X542580Y360260D01*
X541410Y361300D01*
X540630Y363120D01*
X540240Y365200D01*
X540630Y367280D01*
X541410Y369100D01*
X542580Y370140D01*
X543750Y370400D01*
X544920Y370140D01*
X546090Y369100D01*
X546870Y367280D01*
X547065Y365200D01*
X546870Y363120D01*
X546090Y361300D01*
X544920Y360260D01*
X543750Y360000D01*
G01X558140Y354800D02*
Y370400D01*
G01Y368060D02*
X559115Y369360D01*
X560090Y370140D01*
X561650Y370400D01*
X563015Y370140D01*
X564380Y368840D01*
X564965Y367020D01*
X565160Y365200D01*
X564965Y363380D01*
X564380Y361560D01*
X563210Y360520D01*
X561650Y360000D01*
X560285Y360260D01*
X558920Y361040D01*
X558140Y362080D01*
G01X610100Y146900D02*
Y6400D01*
G01X650710Y14200D02*
Y26700D01*
X644975Y17742D01*
X652725D01*
G01X650710Y42300D02*
Y54800D01*
X644975Y45842D01*
X652725D01*
G01X645905Y80817D02*
X646835Y82066D01*
X647920Y82692D01*
X649160Y82900D01*
X650710Y82483D01*
X651795Y81442D01*
X652105Y80192D01*
X651950Y78941D01*
X651330Y77900D01*
X648230Y75817D01*
X646835Y74358D01*
X645905Y72275D01*
X645595Y70400D01*
X652105D01*
G01X636450Y98500D02*
Y111000D01*
X634590Y108500D01*
G01Y98500D02*
X638310D01*
G01X648850Y111000D02*
X647610Y110583D01*
X646680Y109542D01*
X646060Y108292D01*
X645595Y106625D01*
X645440Y104750D01*
X645595Y102875D01*
X646060Y101208D01*
X646680Y99958D01*
X647610Y98917D01*
X648850Y98500D01*
X650090Y98917D01*
X651020Y99958D01*
X651640Y101208D01*
X652105Y102875D01*
X652260Y104750D01*
X652105Y106625D01*
X651640Y108292D01*
X651020Y109542D01*
X650090Y110583D01*
X648850Y111000D01*
G01X661250Y98500D02*
Y111000D01*
X659390Y108500D01*
G01Y98500D02*
X663110D01*
G01X636450Y128150D02*
X635210Y128358D01*
X634125Y129191D01*
X633195Y130442D01*
X632575Y131900D01*
X632265Y133567D01*
Y135233D01*
X632575Y136900D01*
X633195Y138358D01*
X634125Y139608D01*
X635210Y140442D01*
X636450Y140650D01*
X637690Y140442D01*
X638775Y139608D01*
X639705Y138358D01*
X640325Y136900D01*
X640635Y135233D01*
Y133567D01*
X640325Y131900D01*
X639705Y130442D01*
X638775Y129191D01*
X637690Y128358D01*
X636450Y128150D01*
G01X637690Y131483D02*
X639550Y128150D01*
G01X648850Y140650D02*
Y128150D01*
G01X645285Y140650D02*
X652415D01*
G01X661250Y128150D02*
Y133775D01*
X658150Y140650D01*
G01X664350D02*
X661250Y133775D01*
M02*
