M48
INCH
T01C.013
T02C.09843
T03C.043
T04C.05118
;LEADER: 12 
;HEADER: 
;CODE  : ASCII 
;FILE  : GenericSensorboardHalfSize_final-1-4-1-4.drl for board GenericSensorboardHalfSize_final.brd ... layers TOP and BOTTOM
;T01 Holesize 1. = 13.000000 Tolerance = +0.000000/-0.000000 PLATED MILS Quantity = 101
;T02 Holesize 2. = 98.430000 Tolerance = +0.000000/-0.000000 PLATED MILS Quantity = 2
;T03 Holesize 3. = 43.000000 Tolerance = +0.000000/-0.000000 NON_PLATED MILS Quantity = 4
;T04 Holesize 4. = 51.180000 Tolerance = +0.000000/-0.000000 NON_PLATED MILS Quantity = 4
%
G90
T01
X01083Y00090
X01400Y00415
X01518Y00708
X01046Y00925
X00730Y00902
X01774Y00910
X01743Y00405
X01651Y01117
X01790Y00405
X01615Y01280
X01580Y01280
X00670Y00436
X00917Y00476
X00960Y00540
X01673Y01240
X01480Y00093
X00530Y01090
X01295Y01120
X01605Y00625
X00730Y00695
X00728Y00638
X00791Y00585
X00696Y00627
X00823Y00397
X00831Y00098
X00722Y00099
X00661Y00098
X00533Y00477
X00532Y00270
X01000Y00040
X00670Y00580
X01830Y00785
X01823Y00048
X01362Y01360
X00530Y01355
X01171Y00041
X01150Y00605
X00777Y00656
X00650Y00827
X01001Y00705
X01340Y00706
X01185Y00320
X01170Y00405
X01068Y00640
X01565Y00715
X01300Y00405
X01305Y00840
X00960Y00845
X01360Y00120
X01302Y00245
X01280Y00575
X00783Y00828
X01138Y00823
X01715Y01225
X00665Y00755
X01184Y00538
X01545Y00370
X01076Y00576
X01010Y00663
X01042Y00709
X01000Y01040
X00638Y01068
X01575Y01180
X01585Y01385
X01535Y01385
X00650Y00925
X00642Y01022
X00772Y01193
X00918Y00062
X00498Y00478
X01661Y00584
X01661Y00388
X00801Y00034
X00751Y00034
X00690Y00034
X00535Y00206
X00498Y00270
X00822Y00231
X00854Y00231
X00950Y00575
X00970Y01193
X00605Y00800
X00743Y00235
X00822Y00450
X00854Y00450
X00665Y00395
X00625Y00115
X01543Y00669
X01509Y00359
X01575Y01125
X01655Y00930
X01485Y01095
X01301Y00548
X00509Y00748
X00615Y00593
X00462Y00515
X00972Y00478
X00970Y00090
X00917Y00099
X00532Y00338
X00539Y00767
T02
X00531Y00098
X01791Y01319
T03
X00669Y01180
X01219Y01180
X01646Y00687
X01646Y00137
T04
X00589Y01181
X01301Y01181
X00687Y00236
X01203Y00236
M30
