G04 ================== begin FILE IDENTIFICATION RECORD ==================*
G04 Layout Name:  C:/mote/boards/iMote2/GenericSensorboard/Rev1a/Allegro/GenericSensorboardHalfSize_final.brd*
G04 Film Name:    PWR*
G04 File Format:  Gerber RS274X*
G04 File Origin:  15.7-s002*
G04 Origin Date:  Mon Mar 26 13:45:56 2007*
G04 *
G04 Layer:  BOARD GEOMETRY/OUTLINE*
G04 Layer:  ETCH/LAYER3*
G04 Layer:  PIN/LAYER3*
G04 Layer:  VIA CLASS/LAYER3*
G04 *
G04 Offset:    (0.00 0.00)*
G04 Mirror:    No*
G04 Mode:      Negative*
G04 Rotation:  0*
G04 FullContactRelief:  No*
G04 UndefLineWidth:     0.00*
G04 ================== end FILE IDENTIFICATION RECORD ====================*
%FSLAX55Y55*MOIN*%
%IR0*IPPOS*OFA0.00000B0.00000*MIA0B0*SFA1.00000B1.00000*%
%ADD11C,.03*%
%ADD12C,.024*%
%ADD13C,.07087*%
%ADD14C,.124*%
%ADD10C,.15748*%
%ADD15C,.006*%
%ADD16C,.007*%
%ADD17C,.03604*%
%ADD19C,.05704*%
%ADD18C,.13212*%
G75*
%LPD*%
G75*
G36*
G01X33307Y-10000D02*
X198976D01*
Y151732D01*
X33307D01*
Y-10000D01*
G37*
%LPC*%
G75*
G36*
G01X45331Y1600D02*
X45164Y49391D01*
G02X45679Y49775I400J1D01*
G03X45667Y53221I521J1725D01*
G02X45149Y53602I-118J383D01*
G01X45148Y53900D01*
X57000D01*
Y43500D01*
X50200D01*
Y31400D01*
X70800D01*
Y42400D01*
X87000D01*
Y24946D01*
G02X86382Y24611I-400J0D01*
G03X84091Y24338I-982J-1511D01*
G02X83509I-291J275D01*
G03Y21862I-1309J-1238D01*
G02X84091I291J-275D01*
G03X86382Y21589I1309J1238D01*
G02X87000Y21254I218J-335D01*
G01Y6400D01*
X89944D01*
X89949Y6205D01*
G03X93551I1801J45D01*
G01X93556Y6400D01*
X114100D01*
Y1600D01*
X81800D01*
G02X81491Y2254I0J400D01*
G03X78709I-1391J1146D01*
G02X78400Y1600I-309J-254D01*
G01X76800D01*
G02X76491Y2254I0J400D01*
G03X73709I-1391J1146D01*
G02X73400Y1600I-309J-254D01*
G01X70700D01*
G02X70391Y2254I0J400D01*
G03X67609I-1391J1146D01*
G02X67300Y1600I-309J-254D01*
G01X45331D01*
G37*
G36*
G01X86613Y43692D02*
G03X84085Y46259I-1239J1308D01*
G02X83513I-286J280D01*
G03X80985Y43692I-1289J-1259D01*
G02X80710Y43002I-275J-290D01*
G01X70198D01*
Y32200D01*
X55128D01*
G02X54787Y32809I0J400D01*
G03X51713I-1537J941D01*
G02X51372Y32200I-341J-209D01*
G01X50900D01*
Y42898D01*
X57602D01*
Y54502D01*
X45100D01*
Y100100D01*
X58000D01*
Y60900D01*
X59682D01*
G02X60017Y60282I0J-400D01*
G03X63039I1511J-982D01*
G02X63374Y60900I335J218D01*
G01X69545D01*
G03X69707I81J1800D01*
G01X110500D01*
Y7002D01*
X109782D01*
G02X109507Y7692I0J400D01*
G03X107029I-1239J1308D01*
G02X106754Y7002I-275J-290D01*
G01X98514D01*
G02X98239Y7692I0J400D01*
G03X95761I-1239J1308D01*
G02X95486Y7002I-275J-290D01*
G01X93392D01*
X93335Y7106D01*
G03X92738Y7757I-1586J-855D01*
G02X92728Y8420I219J335D01*
G03X90712Y8393I-1028J1480D01*
G02X90722Y7730I-219J-335D01*
G03X90165Y7106I1029J-1479D01*
G01X90108Y7002D01*
X87602D01*
Y43002D01*
X86888D01*
G02X86613Y43692I0J400D01*
G37*
G36*
G01X142500Y8101D02*
Y12500D01*
X158160D01*
X157969Y70454D01*
X158002Y70505D01*
G03X157996Y72505I-1502J996D01*
G01X157962Y72555D01*
X157860Y103500D01*
X102200D01*
G02X101800Y103918I0J400D01*
G03X98200I-1800J83D01*
G02X97800Y103500I-400J-18D01*
G01X65550D01*
X65493Y103555D01*
G03X63007I-1243J-1305D01*
G01X62950Y103500D01*
X45500D01*
Y115000D01*
X56117D01*
X56173Y114952D01*
G03X61543I2685J3158D01*
G01X61599Y115000D01*
X127377D01*
X127433Y114952D01*
G03X128546Y114275I2684J3159D01*
G02X128595Y113558I-151J-370D01*
G03X130698Y113346I905J-1558D01*
G02X130890Y114037I266J298D01*
G03X132803Y114952I-773J4073D01*
G01X132859Y115000D01*
X156500D01*
Y115881D01*
G02X157009Y116266I400J0D01*
G03Y119734I491J1734D01*
G02X156500Y120119I-109J385D01*
G01Y126092D01*
G02X157100Y126439I400J0D01*
G03X159432Y126906I900J1561D01*
G02X160068I318J-242D01*
G03Y129094I1432J1094D01*
G02X159432I-318J242D01*
G03X157100Y129561I-1432J-1094D01*
G02X156500Y129908I-200J347D01*
G01Y133500D01*
X168000D01*
Y126181D01*
G02X167546Y125785I-400J0D01*
G03Y122215I-246J-1785D01*
G02X168000Y121819I54J-396D01*
G01Y60012D01*
G02X167328Y59719I-400J0D01*
G03Y57081I-1228J-1319D01*
G02X168000Y56788I272J-293D01*
G01Y40412D01*
G02X167328Y40119I-400J0D01*
G03Y37481I-1228J-1319D01*
G02X168000Y37188I272J-293D01*
G01Y8101D01*
X150052D01*
G02X149679Y8646I0J400D01*
G03X146321I-1679J654D01*
G02X145948Y8101I-373J-145D01*
G01X142500D01*
G37*
G36*
G01X175500Y2000D02*
Y39128D01*
X175563Y39187D01*
G03Y41813I-1234J1313D01*
G01X175500Y41872D01*
Y89388D01*
G02X176172Y89681I400J0D01*
G03Y92319I1228J1319D01*
G02X175500Y92612I-272J293D01*
G01Y124500D01*
X175101D01*
Y125101D01*
X168730D01*
X168670Y125171D01*
G03X168653Y125189I-1317J-1227D01*
G01X168601Y125247D01*
Y134101D01*
X155899D01*
Y124500D01*
X45300D01*
Y140100D01*
X151654D01*
G02X151989Y139482I0J-400D01*
G03X155011I1511J-982D01*
G02X155346Y140100I335J218D01*
G01X156654D01*
G02X156989Y139482I0J-400D01*
G03X160011I1511J-982D01*
G02X160346Y140100I335J218D01*
G01X186500D01*
Y2000D01*
X175500D01*
G37*
G36*
G01X114702Y1700D02*
Y7002D01*
X111102D01*
Y61502D01*
X71678D01*
G02X71305Y62047I0J400D01*
G03X71367Y62237I-1679J653D01*
G02X71682Y62344I193J-52D01*
G03X71106Y64452I1094J1432D01*
G02X70534Y64257I-370J150D01*
G03X67947Y62047I-908J-1557D01*
G02X67574Y61502I-373J-145D01*
G01X59118D01*
X59068Y78053D01*
G02X59656Y78408I400J2D01*
G03X59646Y81587I844J1592D01*
G02X59057Y81938I-189J352D01*
G01X59000Y100800D01*
X63178D01*
X63229Y100765D01*
G03X65271I1021J1485D01*
G01X65322Y100800D01*
X68500D01*
Y77013D01*
G02X67809Y76738I-400J0D01*
G03X68300Y75410I-1309J-1239D01*
G01X68309Y75600D01*
X124800D01*
Y75700D01*
X137700D01*
Y67991D01*
X121100Y68091D01*
Y28147D01*
G02X120663Y27749I-400J0D01*
G03Y19495I-387J-4127D01*
G02X121100Y19097I37J-398D01*
G01Y1700D01*
X114702D01*
G37*
G36*
G01X121701Y27516D02*
Y67486D01*
X138301Y67386D01*
Y76301D01*
X124199D01*
Y76201D01*
X69101D01*
Y86000D01*
X81000D01*
Y80300D01*
X110100D01*
Y85100D01*
X117800D01*
Y80300D01*
X142200D01*
Y50900D01*
X126200D01*
X126000Y35500D01*
X133000D01*
Y7500D01*
X147919D01*
G03X148081I81J1800D01*
G01X169000D01*
Y123401D01*
X169010Y123432D01*
G03X169100Y124082I-1710J568D01*
G02X169500Y124500I400J18D01*
G01X169987D01*
G02X170262Y123809I0J-400D01*
G03X172738I1238J-1309D01*
G02X173013Y124500I275J291D01*
G01X174500D01*
Y42305D01*
X174303Y42302D01*
G03Y38698I26J-1802D01*
G01X174500Y38695D01*
Y1500D01*
X121701D01*
Y19728D01*
X121826Y19778D01*
G03Y27466I-1551J3844D01*
G01X121701Y27516D01*
G37*
G36*
G01X150645Y69326D02*
G03Y72174I1105J1424D01*
G02X150000Y72490I-245J316D01*
G01Y90000D01*
X81000D01*
Y87000D01*
X69500D01*
Y102500D01*
X99000D01*
X99048Y102470D01*
G03X100952I952J1530D01*
G01X101000Y102500D01*
X157262D01*
X157297Y92000D01*
X157000D01*
Y73700D01*
G02X156582Y73300I-400J0D01*
G03Y69700I-84J-1800D01*
G02X157000Y69300I18J-400D01*
G01Y13500D01*
X142000D01*
Y38500D01*
X141601D01*
Y38601D01*
X137000D01*
Y45899D01*
X149601D01*
Y46000D01*
X150000D01*
Y69010D01*
G02X150645Y69326I400J0D01*
G37*
G36*
G01X133601Y9000D02*
Y36101D01*
X133500D01*
Y36300D01*
X126611D01*
X126793Y50299D01*
X142801D01*
Y80901D01*
X118401D01*
Y85701D01*
X118200D01*
Y85900D01*
X108900D01*
Y80901D01*
X82300D01*
Y88500D01*
X149000D01*
Y46500D01*
X136000D01*
Y38000D01*
X141000D01*
Y9000D01*
X133601D01*
G37*
%LPD*%
G75*
G36*
G01X72507Y21980D02*
G02X72575Y25096I-3806J1642D01*
G03X73194Y24923I374J143D01*
G02X73133Y22127I1106J-1423D01*
G03X72507Y21980I-259J-305D01*
G37*
G36*
G01X51182Y25906D02*
G02Y28094I-1432J1094D01*
G03X51818I318J242D01*
G02Y25906I1432J-1094D01*
G03X51182I-318J-242D01*
G37*
G36*
G01X64956Y11192D02*
G02X64298Y9799I1144J-1392D01*
G03X63644Y10108I-400J0D01*
G02X64302Y11501I-1144J1392D01*
G03X64956Y11192I400J0D01*
G37*
G36*
G01X51862Y48787D02*
G02X51832Y46654I1438J-1087D01*
G03X51188Y46663I-325J-232D01*
G02X51218Y48796I-1438J1087D01*
G03X51862Y48787I325J232D01*
G37*
G36*
G01X96566Y55711D02*
G02X94616Y55153I-565J-1711D01*
G03X94434Y55789I-308J256D01*
G02X96384Y56347I565J1711D01*
G03X96566Y55711I308J-256D01*
G37*
G36*
G01X52698Y74677D02*
G02X51557Y76478I-1798J123D01*
G03X52102Y76823I146J372D01*
G02X53243Y75022I1798J-123D01*
G03X52698Y74677I-146J-372D01*
G37*
G36*
G01X130137Y56602D02*
G02X128345Y55208I-37J-1802D01*
G03X127963Y55698I-390J90D01*
G02X129755Y57092I37J1802D01*
G03X130137Y56602I390J-90D01*
G37*
G36*
G01X152646Y35456D02*
G02X152100Y37245I-1746J445D01*
G03X152754Y37444I267J298D01*
G02X153300Y35655I1746J-445D01*
G03X152646Y35456I-267J-298D01*
G37*
G54D17*
X82300Y39700D03*
X53500Y20600D03*
X72200Y9900D03*
X83100Y9800D03*
X100000Y4000D03*
X66500Y39500D03*
X67034Y43635D03*
X91700Y47600D03*
X97250Y47750D03*
X107600Y57600D03*
X67000Y58000D03*
X79075Y58500D03*
X157500Y112500D03*
X165118Y111718D03*
X148500Y109500D03*
X53000Y109000D03*
X63751Y106800D03*
X165500Y93000D03*
X160500Y62500D03*
X182300Y4800D03*
X179000Y40500D03*
X183000Y78500D03*
X53000Y135500D03*
X136200Y136000D03*
X65000Y92500D03*
Y82700D03*
X104155Y70933D03*
X134000Y70600D03*
X100100Y70500D03*
X73000Y69500D03*
X101000Y66300D03*
X77700Y65600D03*
X106800Y64000D03*
X115000Y60500D03*
X118400Y53800D03*
X117000Y40500D03*
X118500Y32000D03*
X117100Y4100D03*
X130200Y24500D03*
X113779Y82279D03*
X78279Y82779D03*
X140000Y41500D03*
X154300Y66900D03*
X73000Y90200D03*
X104590Y92500D03*
X136000Y12000D03*
X130000Y40500D03*
X130500Y84000D03*
X96000Y84500D03*
G54D19*
X164631Y68661D03*
Y13739D03*
G54D18*
X53150Y9843D03*
X179134Y131890D03*
G54D11*
X49750Y47750D03*
Y27000D03*
X46200Y51500D03*
X50900Y74800D03*
X80100Y3400D03*
X75100D03*
X69000D03*
X53500Y20600D03*
X62500Y11500D03*
X67034Y43635D03*
X74300Y23500D03*
X66500Y39500D03*
X73000Y69500D03*
X72776Y63776D03*
X79075Y58500D03*
X69626Y62700D03*
X67000Y58000D03*
X66500Y75500D03*
X60500Y80000D03*
X61528Y59300D03*
X63751Y106800D03*
X65000Y92500D03*
X64250Y102250D03*
X77176Y119324D03*
X108268Y9000D03*
X91750Y6250D03*
X91700Y47600D03*
X82200Y23100D03*
X85400D03*
X82224Y45000D03*
X85374D03*
X96000Y54000D03*
X107600Y57600D03*
X101000Y66300D03*
X104155Y70933D03*
X95000Y57500D03*
X100000Y104000D03*
X97000Y119300D03*
X118400Y53800D03*
X130100Y54800D03*
X154500Y37000D03*
X166100Y38800D03*
X150900Y35900D03*
X156500Y71500D03*
X166100Y58400D03*
X154300Y66900D03*
X165118Y111718D03*
X157500Y112500D03*
X165500Y93000D03*
X148500Y109500D03*
X161500Y128000D03*
X158000D03*
X157500Y118000D03*
X158500Y138500D03*
X153500D03*
X174329Y40500D03*
X179000D03*
X177400Y91000D03*
G54D13*
X68701Y23622D03*
X58858Y118110D03*
X120275Y23622D03*
X130118Y118110D03*
G54D14*
X66939Y118031D03*
X121861D03*
X164631Y13739D03*
Y68661D03*
G54D10*
X53150Y9843D03*
X179134Y131890D03*
%LPC*%
G75*
G54D12*
X72200Y9900D03*
X66100Y9800D03*
X53300Y47700D03*
X53250Y27000D03*
Y33750D03*
X77700Y65600D03*
X65000Y82700D03*
X78279Y82779D03*
X53900Y76700D03*
X73000Y90200D03*
X53000Y109000D03*
Y135500D03*
X83100Y9800D03*
X100000Y4000D03*
X97000Y9000D03*
X91700Y9900D03*
X82300Y39700D03*
X97250Y47750D03*
X100100Y70500D03*
X106800Y64000D03*
X104590Y92500D03*
X96000Y84500D03*
X117100Y4100D03*
X136000Y12000D03*
X140000Y41500D03*
X118500Y32000D03*
X117000Y40500D03*
X130000D03*
X130200Y24500D03*
X115000Y60500D03*
X134000Y70600D03*
X128000Y57500D03*
X113779Y82279D03*
X129500Y112000D03*
X130500Y84000D03*
X136200Y136000D03*
X148000Y9300D03*
X151750Y70750D03*
X160500Y62500D03*
X167300Y124000D03*
X171500Y122500D03*
X182300Y4800D03*
X183000Y78500D03*
G54D15*
G01X72200Y9900D02*
X74200D01*
G01X70200D02*
X72200D01*
G01D02*
Y11900D01*
G01Y7900D02*
Y9900D01*
G01X66100Y9800D02*
X68100D01*
G01X64100D02*
X66100D01*
G01D02*
Y11800D01*
G01Y7800D02*
Y9800D01*
G01X53300Y47700D02*
X55300D01*
G01X53300D02*
Y49700D01*
G01Y45700D02*
Y47700D01*
G01X53250Y27000D02*
X55250D01*
G01X53250D02*
Y29000D01*
G01Y25000D02*
Y27000D01*
G01Y33750D02*
X55250D01*
G01X51250D02*
X53250D01*
G01D02*
Y35750D01*
G01X77700Y65600D02*
X79700D01*
G01X75700D02*
X77700D01*
G01D02*
Y67600D01*
G01Y63600D02*
Y65600D01*
G01X65000Y80700D02*
Y82700D01*
G01X78279Y80779D02*
Y82779D01*
G01X53900Y76700D02*
X55900D01*
G01X51900D02*
X53900D01*
G01D02*
Y78700D01*
G01Y74700D02*
Y76700D01*
G01X53000Y109000D02*
X55000D01*
G01X51000D02*
X53000D01*
G01D02*
Y111000D01*
G01Y107000D02*
Y109000D01*
G01X65000Y82700D02*
X67000D01*
G01X63000D02*
X65000D01*
G01D02*
Y84700D01*
G01X78279Y82779D02*
X80279D01*
G01X76279D02*
X78279D01*
G01D02*
Y84779D01*
G01X53000Y135500D02*
X55000D01*
G01X51000D02*
X53000D01*
G01D02*
Y137500D01*
G01Y133500D02*
Y135500D01*
G01X83100Y9800D02*
X85100D01*
G01X81100D02*
X83100D01*
G01D02*
Y11800D01*
G01Y7800D02*
Y9800D01*
G01X100000Y4000D02*
X102000D01*
G01X98000D02*
X100000D01*
G01D02*
Y6000D01*
G01Y2000D02*
Y4000D01*
G01X97000Y9000D02*
X99000D01*
G01X95000D02*
X97000D01*
G01D02*
Y11000D01*
G01X91700Y9900D02*
X93700D01*
G01X89700D02*
X91700D01*
G01D02*
Y11900D01*
G01X82300Y39700D02*
X84300D01*
G01X80300D02*
X82300D01*
G01D02*
Y41700D01*
G01Y37700D02*
Y39700D01*
G01X97250Y47750D02*
X99250D01*
G01X95250D02*
X97250D01*
G01D02*
Y49750D01*
G01Y45750D02*
Y47750D01*
G01X100100Y70500D02*
X102100D01*
G01X98100D02*
X100100D01*
G01D02*
Y72500D01*
G01Y68500D02*
Y70500D01*
G01X106800Y64000D02*
X108800D01*
G01X104800D02*
X106800D01*
G01D02*
Y66000D01*
G01Y62000D02*
Y64000D01*
G01X117100Y4100D02*
X119100D01*
G01X115100D02*
X117100D01*
G01D02*
Y6100D01*
G01Y2100D02*
Y4100D01*
G01X118500Y32000D02*
X120500D01*
G01X116500D02*
X118500D01*
G01D02*
Y34000D01*
G01Y30000D02*
Y32000D01*
G01X117000Y40500D02*
X119000D01*
G01X115000D02*
X117000D01*
G01D02*
Y42500D01*
G01Y38500D02*
Y40500D01*
G01X130200Y24500D02*
X132200D01*
G01X128200D02*
X130200D01*
G01D02*
Y26500D01*
G01Y22500D02*
Y24500D01*
G01X115000Y60500D02*
X117000D01*
G01X113000D02*
X115000D01*
G01D02*
Y62500D01*
G01Y58500D02*
Y60500D01*
G01X134000Y70600D02*
X136000D01*
G01X132000D02*
X134000D01*
G01D02*
Y72600D01*
G01Y68600D02*
Y70600D01*
G01X113779Y80279D02*
Y82279D01*
G01X128000Y57500D02*
X130000D01*
G01X126000D02*
X128000D01*
G01D02*
Y59500D01*
G01Y55500D02*
Y57500D01*
G01X129500Y110000D02*
Y112000D01*
G01X113779Y82279D02*
X115779D01*
G01X111779D02*
X113779D01*
G01D02*
Y84279D01*
G01X129500Y112000D02*
X131500D01*
G01X127500D02*
X129500D01*
G01X136200Y136000D02*
X138200D01*
G01X134200D02*
X136200D01*
G01D02*
Y138000D01*
G01Y134000D02*
Y136000D01*
G01X148000Y9300D02*
X150000D01*
G01X146000D02*
X148000D01*
G01D02*
Y11300D01*
G01X160500Y62500D02*
X162500D01*
G01X158500D02*
X160500D01*
G01D02*
Y64500D01*
G01Y60500D02*
Y62500D01*
G01X165300Y124000D02*
X167300D01*
G01D02*
Y126000D01*
G01Y122000D02*
Y124000D01*
G01X169500Y122500D02*
X171500D01*
G01X182300Y4800D02*
X184300D01*
G01X180300D02*
X182300D01*
G01D02*
Y6800D01*
G01Y2800D02*
Y4800D01*
G01X183000Y78500D02*
X185000D01*
G01X181000D02*
X183000D01*
G01D02*
Y80500D01*
G01Y76500D02*
Y78500D01*
G01X171500Y122500D02*
X173500D01*
G01X171500Y120500D02*
Y122500D01*
G54D16*
G01X73000Y90200D02*
X75000D01*
G01X71000D02*
X73000D01*
G01D02*
Y92200D01*
G01Y88200D02*
Y90200D01*
G01X104590Y92500D02*
X106590D01*
G01X102590D02*
X104590D01*
G01D02*
Y94500D01*
G01Y90500D02*
Y92500D01*
G01X96000Y84500D02*
X98000D01*
G01X94000D02*
X96000D01*
G01D02*
Y86500D01*
G01Y82500D02*
Y84500D01*
G01X136000Y12000D02*
X138000D01*
G01X134000D02*
X136000D01*
G01D02*
Y14000D01*
G01Y10000D02*
Y12000D01*
G01X140000Y41500D02*
X142000D01*
G01X138000D02*
X140000D01*
G01D02*
Y43500D01*
G01Y39500D02*
Y41500D01*
G01X130000Y40500D02*
X132000D01*
G01X128000D02*
X130000D01*
G01D02*
Y42500D01*
G01Y38500D02*
Y40500D01*
G01X130500Y84000D02*
X132500D01*
G01X128500D02*
X130500D01*
G01D02*
Y86000D01*
G01Y82000D02*
Y84000D01*
G01X151750Y70750D02*
X153750D01*
G01X151750D02*
Y72750D01*
G01Y68750D02*
Y70750D01*
M02*
